<svg xmlns="http://www.w3.org/2000/svg" width="800" height="1306" viewBox="0 0 800 1306" version="1.1"><path d="M 718.235 5.690 L 721.970 6.119 722.258 34.560 L 722.547 63.001 722.523 34.250 L 722.500 5.500 718.500 5.381 L 714.500 5.262 718.235 5.690 M 765.286 67.500 C 765.294 70.250, 765.488 71.256, 765.718 69.736 C 765.947 68.216, 765.941 65.966, 765.704 64.736 C 765.467 63.506, 765.279 64.750, 765.286 67.500 M 147.825 125.750 C 171.104 125.899, 208.904 125.899, 231.825 125.750 C 254.746 125.600, 235.700 125.478, 189.500 125.478 C 143.300 125.478, 124.546 125.600, 147.825 125.750 M 638.250 125.748 C 648.013 125.912, 663.988 125.912, 673.750 125.748 C 683.513 125.585, 675.525 125.451, 656 125.451 C 636.475 125.451, 628.488 125.585, 638.250 125.748 M 147.825 129.750 C 171.104 129.899, 208.904 129.899, 231.825 129.750 C 254.746 129.600, 235.700 129.478, 189.500 129.478 C 143.300 129.478, 124.546 129.600, 147.825 129.750 M 638.250 129.748 C 648.013 129.912, 663.988 129.912, 673.750 129.748 C 683.513 129.585, 675.525 129.451, 656 129.451 C 636.475 129.451, 628.488 129.585, 638.250 129.748 M 105 142 C 105 143.984, 105.667 144, 189.500 144 C 273.333 144, 274 143.984, 274 142 C 274 140.016, 273.333 140, 189.500 140 C 105.667 140, 105 140.016, 105 142 M 620 142 C 620 143.963, 620.667 144, 656 144 C 691.333 144, 692 143.963, 692 142 C 692 140.037, 691.333 140, 656 140 C 620.667 140, 620 140.037, 620 142 M 765.495 791.500 C 765.495 993.350, 765.610 1075.776, 765.750 974.669 C 765.890 873.561, 765.890 708.411, 765.750 607.669 C 765.610 506.926, 765.495 589.650, 765.495 791.500 M 263.313 620.074 C 255.750 623.818, 250 634.606, 250 645.052 C 250 649.358, 250.456 650.610, 252.923 653.077 C 255.429 655.583, 256.613 656, 261.227 656 C 267.258 656, 276.557 652.080, 277.394 649.184 C 277.662 648.258, 278.385 645.475, 279 643 C 279.615 640.525, 280.348 637.712, 280.627 636.750 C 281.076 635.202, 280.331 635, 274.184 635 C 267.821 635, 267.182 635.190, 266.630 637.250 C 265.588 641.139, 265.927 642, 268.500 642 C 270.261 642, 271 642.544, 271 643.839 C 271 647.150, 262.798 649.398, 260.200 646.800 C 257.327 643.927, 260.331 631.458, 264.729 627.998 C 268.131 625.323, 272.023 625.371, 272.736 628.097 C 273.187 629.824, 273.810 630.088, 276.267 629.597 C 277.908 629.268, 279.869 629, 280.625 629 C 281.524 629, 282 627.814, 282 625.573 C 282 618.464, 272.320 615.616, 263.313 620.074 M 446.436 619.413 C 433.896 624.874, 427.316 651.128, 437.517 655.006 C 445.653 658.100, 454.648 654.537, 459.606 646.258 C 466.146 635.337, 466.336 622.776, 460.011 619.506 C 456.449 617.664, 450.545 617.623, 446.436 619.413 M 290.102 636.916 C 284.546 646.770, 280 655.095, 280 655.416 C 280 655.737, 281.970 656, 284.379 656 C 288.301 656, 288.887 655.687, 290 653 C 291.163 650.193, 291.588 650, 296.621 650 C 301.931 650, 302 650.039, 302 653 C 302 655.889, 302.167 656, 306.500 656 L 311 656 311 646.654 C 311 641.513, 310.708 633.188, 310.350 628.154 L 309.701 619 304.952 619 L 300.204 619 290.102 636.916 M 324.967 623.250 C 324.356 625.587, 322.314 633.250, 320.428 640.278 C 316.143 656.249, 316.144 656.209, 320.250 655.813 L 323.500 655.500 326.754 643.500 C 328.544 636.900, 330.208 631.050, 330.452 630.500 C 330.695 629.950, 330.624 635.496, 330.294 642.825 L 329.693 656.150 332.889 655.825 C 335.938 655.515, 336.370 654.890, 342.249 642.289 C 345.639 635.024, 348.524 629.191, 348.661 629.328 C 348.798 629.465, 347.356 635.307, 345.455 642.310 C 343.555 649.313, 342 655.258, 342 655.521 C 342 655.785, 343.558 656, 345.461 656 C 349.391 656, 348.320 658.544, 355.044 633.250 L 358.832 619 352.989 619 L 347.146 619 342.066 629.250 L 336.987 639.500 337.498 629.250 L 338.010 619 332.044 619 L 326.077 619 324.967 623.250 M 367.967 623.250 C 367.356 625.587, 365.314 633.250, 363.428 640.278 C 361.543 647.306, 360 653.718, 360 654.528 C 360 655.741, 362.088 656, 371.892 656 L 383.783 656 384.439 653.250 C 384.800 651.737, 385.329 649.712, 385.615 648.750 C 386.078 647.192, 385.306 647, 378.567 647 C 370.643 647, 370.402 646.835, 371.630 642.250 C 372.185 640.179, 372.810 640, 379.492 640 L 386.750 640 387.375 636.875 C 387.719 635.156, 388 633.356, 388 632.875 C 388 632.394, 385.075 632, 381.500 632 C 374.805 632, 374.111 631.480, 375.607 627.582 C 376.085 626.336, 377.790 626, 383.632 626 C 390.674 626, 391.099 625.870, 392.025 623.435 C 392.561 622.024, 393 620.449, 393 619.935 C 393 619.407, 387.791 619, 381.039 619 L 369.077 619 367.967 623.250 M 410.671 619.750 C 410.211 620.520, 401 654.800, 401 655.740 C 401 656.027, 405.689 656.054, 411.420 655.799 C 418.877 655.467, 422.569 654.857, 424.406 653.654 C 430.071 649.942, 432.724 641.562, 429.398 637.887 C 427.736 636.051, 427.698 635.690, 429.059 634.660 C 433.491 631.307, 435.235 625.176, 432.965 620.934 C 432.043 619.212, 430.788 619, 421.524 619 C 415.801 619, 410.917 619.337, 410.671 619.750 M 467 620.060 C 467 620.704, 468.151 625.456, 469.559 630.622 L 472.117 640.014 470.059 647.518 C 468.926 651.645, 468 655.242, 468 655.511 C 468 655.780, 469.952 656, 472.339 656 L 476.678 656 478.813 648.023 C 480.715 640.917, 481.823 638.948, 488.974 629.972 C 493.388 624.431, 497 619.695, 497 619.449 C 497 619.202, 494.990 619, 492.532 619 C 488.283 619, 487.861 619.270, 483.878 624.546 C 481.575 627.596, 479.350 629.733, 478.934 629.296 C 478.517 628.858, 477.787 626.475, 477.311 624 L 476.446 619.500 471.723 619.195 C 468.610 618.994, 467 619.289, 467 620.060 M 417.697 626.750 C 417.466 627.163, 416.981 628.737, 416.619 630.250 C 415.998 632.850, 416.152 633, 419.446 633 C 423.135 633, 425.690 630.240, 424.608 627.422 C 424.046 625.955, 418.448 625.411, 417.697 626.750 M 446.336 629.250 C 444.177 631.664, 442.493 635.628, 441.519 640.586 C 441.086 642.791, 441.448 644.332, 442.788 645.986 C 446.783 650.920, 452.791 645.863, 454.962 635.741 C 455.683 632.379, 455.685 630.279, 454.967 628.939 C 453.530 626.253, 448.867 626.421, 446.336 629.250 M 71 642.073 C 71 653.985, 71.156 655.117, 72.750 654.813 C 74.225 654.532, 74.579 653.001, 75 645.075 L 75.500 635.670 83.347 645.335 C 88.288 651.421, 91.898 655, 93.097 655 C 94.871 655, 95 654.112, 95 641.927 C 95 630.015, 94.845 628.883, 93.250 629.188 C 91.749 629.475, 91.459 630.920, 91.213 639.332 L 90.926 649.140 82.763 639.070 C 71.569 625.260, 71 625.405, 71 642.073 M 102 631 C 102 632.111, 102.667 633, 103.500 633 C 104.333 633, 105 632.111, 105 631 C 105 629.889, 104.333 629, 103.500 629 C 102.667 629, 102 629.889, 102 631 M 210 633.462 C 210 637.708, 209.848 637.989, 208.066 637.035 C 204.781 635.277, 200.282 635.854, 197.306 638.413 C 194.976 640.417, 194.500 641.620, 194.500 645.500 C 194.500 649.380, 194.976 650.583, 197.306 652.587 C 200.212 655.086, 205.235 655.769, 207.974 654.037 C 208.925 653.436, 209.686 653.493, 210.123 654.199 C 210.494 654.800, 211.532 655.010, 212.430 654.665 C 213.838 654.125, 214.023 652.360, 213.781 641.782 C 213.535 631.034, 213.284 629.483, 211.750 629.189 C 210.288 628.909, 210 629.612, 210 633.462 M 299.215 634.721 C 297.447 638.143, 296 641.181, 296 641.471 C 296 641.762, 297.322 642, 298.939 642 C 301.639 642, 301.930 641.648, 302.529 637.657 C 302.887 635.268, 303.011 632.230, 302.805 630.907 C 302.488 628.877, 301.925 629.476, 299.215 634.721 M 137.750 631.111 C 136.787 631.655, 136 632.929, 136 633.943 C 136 634.957, 135.325 636.045, 134.500 636.362 C 133.675 636.678, 133 637.401, 133 637.969 C 133 638.536, 133.675 639, 134.500 639 C 135.686 639, 136 640.422, 136 645.800 C 136 649.756, 136.502 653.102, 137.200 653.800 C 138.959 655.559, 144 655.337, 144 653.500 C 144 652.667, 143.111 652, 142 652 C 140.205 652, 140 651.333, 140 645.500 C 140 640.507, 140.334 639, 141.441 639 C 143.805 639, 144.365 636.908, 142.156 636.331 C 140.814 635.980, 140.007 634.822, 139.806 632.959 C 139.549 630.579, 139.219 630.281, 137.750 631.111 M 102 645.500 C 102 653.278, 102.272 655, 103.500 655 C 104.728 655, 105 653.278, 105 645.500 C 105 637.722, 104.728 636, 103.500 636 C 102.272 636, 102 637.722, 102 645.500 M 111.667 636.667 C 111.300 637.033, 111 641.308, 111 646.167 C 111 654.333, 111.151 655, 113 655 C 114.780 655, 115 654.333, 115 648.934 C 115 641.111, 116.134 639, 120.335 639 C 125.074 639, 126 640.504, 126 648.200 C 126 653.657, 126.304 655, 127.540 655 C 128.826 655, 129.033 653.642, 128.790 646.785 C 128.517 639.042, 128.345 638.483, 125.809 637.063 C 123.640 635.848, 122.324 635.767, 119.036 636.645 C 116.787 637.245, 114.713 637.345, 114.418 636.867 C 113.779 635.833, 112.587 635.746, 111.667 636.667 M 150.304 637.956 C 144.585 641.443, 144.993 650.667, 151 653.706 C 154.814 655.635, 160.367 655.286, 163.365 652.927 C 164.814 651.788, 166 650.438, 166 649.927 C 166 648.302, 163.070 648.930, 161 651 C 158.445 653.555, 155.948 653.534, 152.635 650.927 C 147.773 647.103, 149.086 646, 158.500 646 C 163.175 646, 167 645.842, 167 645.649 C 167 645.456, 166.501 643.868, 165.892 642.119 C 163.875 636.333, 156.289 634.307, 150.304 637.956 M 172 645.500 C 172 653.278, 172.272 655, 173.500 655 C 174.678 655, 175 653.619, 175 648.571 C 175 641.327, 176.427 639, 180.871 639 C 185.057 639, 186 640.705, 186 648.273 C 186 654.280, 186.221 655.105, 187.750 654.813 C 189.174 654.542, 189.555 653.223, 189.796 647.740 C 190.062 641.677, 189.840 640.749, 187.591 638.500 C 184.928 635.837, 181.182 635.297, 177.827 637.093 C 176.350 637.883, 175.483 637.883, 174.693 637.093 C 172.447 634.847, 172 636.241, 172 645.500 M 222.888 637.443 C 217.734 640.356, 216.725 648.631, 221.047 652.542 C 222.110 653.504, 225.142 654.499, 227.785 654.753 C 231.919 655.151, 233.039 654.838, 235.795 652.519 C 239.855 649.103, 240.246 643.560, 236.717 639.457 C 233.904 636.188, 226.912 635.169, 222.888 637.443 M 152.635 640.073 C 151.186 641.212, 150 642.562, 150 643.073 C 150 643.583, 152.925 644, 156.500 644 C 160.075 644, 162.993 643.663, 162.985 643.250 C 162.957 641.903, 161.542 640.321, 159.316 639.150 C 156.345 637.586, 155.679 637.678, 152.635 640.073 M 201.500 639.203 C 198.704 640.777, 198.033 642.024, 198.015 645.679 C 197.989 651.163, 203.225 654.393, 207.549 651.560 C 209.436 650.323, 210 649.083, 210 646.168 C 210 640.159, 205.847 636.756, 201.500 639.203 M 226.315 639.016 C 221.443 640.958, 220.537 647.704, 224.707 650.984 C 227.466 653.154, 230.992 653.081, 233.744 650.797 C 235.365 649.452, 235.369 642.851, 233.750 640.792 C 232.090 638.681, 229.005 637.944, 226.315 639.016 M 413.664 641.695 C 413.386 642.688, 412.868 644.513, 412.512 645.750 C 411.931 647.770, 412.214 648, 415.278 648 C 419.132 648, 422.373 645.192, 421.829 642.324 C 421.329 639.685, 414.377 639.149, 413.664 641.695 M 486 646 C 486 646.550, 487.125 647, 488.500 647 C 490.910 647, 491 647.233, 491 653.500 C 491 657.167, 491.436 660, 492 660 C 492.564 660, 493 657.167, 493 653.500 C 493 647.233, 493.090 647, 495.500 647 C 496.875 647, 498 646.550, 498 646 C 498 645.444, 495.333 645, 492 645 C 488.667 645, 486 645.444, 486 646 M 500 652.427 C 500 656.809, 500.421 660, 501 660 C 501.550 660, 502.041 657.189, 502.092 653.750 L 502.184 647.500 504.290 653.767 C 505.448 657.214, 506.814 659.895, 507.324 659.725 C 507.835 659.555, 509.289 656.735, 510.556 653.458 L 512.859 647.500 512.930 653.750 C 512.968 657.203, 513.448 660, 514 660 C 514.579 660, 515 656.809, 515 652.427 C 515 645.915, 514.768 644.899, 513.344 645.177 C 512.355 645.370, 510.950 647.676, 509.851 650.910 C 508.840 653.886, 507.832 656.501, 507.611 656.723 C 507.389 656.944, 506.337 654.509, 505.271 651.313 C 504.076 647.727, 502.696 645.376, 501.667 645.177 C 500.229 644.898, 500 645.895, 500 652.427 M 712.750 894.572 C 710.072 896.025, 710 896.294, 710.014 904.782 C 710.021 909.577, 710.297 914.508, 710.627 915.739 C 711.213 917.923, 711.299 917.936, 714.114 916.274 C 715.701 915.336, 717 913.775, 717 912.805 C 717 910.379, 723.984 906.852, 726.262 908.127 C 727.428 908.779, 728.897 908.587, 730.978 907.512 C 732.640 906.652, 734 905.808, 734 905.636 C 734 904.780, 717.923 893.006, 716.801 893.040 C 716.085 893.062, 714.263 893.751, 712.750 894.572 M 716 902.326 C 716 906.179, 717.736 907.228, 719.865 904.663 C 720.714 903.640, 720.389 902.775, 718.488 900.988 L 716 898.651 716 902.326 M 584.750 953.563 C 581.038 955.469, 578 957.481, 578 958.036 C 578 959.370, 585.872 975, 586.544 975 C 586.832 975, 589.414 973.825, 592.283 972.388 C 603.397 966.824, 606.652 962.652, 602.848 958.848 C 601.747 957.747, 600.200 957.093, 599.410 957.396 C 598.312 957.818, 598.122 957.364, 598.599 955.460 C 599.399 952.276, 597.506 949.986, 594.128 950.049 C 592.682 950.076, 588.462 951.657, 584.750 953.563 M 588.250 956.224 C 585.764 957.419, 585.613 957.840, 586.930 959.921 C 587.694 961.128, 588.227 961.081, 590.477 959.607 C 594.603 956.904, 592.737 954.068, 588.250 956.224 M 591.529 963.355 C 590.373 964.201, 589.918 965.343, 590.320 966.390 C 590.911 967.933, 591.210 967.943, 593.982 966.509 C 597.299 964.794, 598.048 962, 595.191 962 C 594.196 962, 592.548 962.610, 591.529 963.355 M 349 1059 C 344.875 1061.146, 341.860 1062.923, 342.300 1062.951 C 342.739 1062.978, 344.367 1062.344, 345.917 1061.543 C 348.700 1060.104, 348.756 1060.133, 350.485 1063.966 C 351.594 1066.427, 352.730 1067.657, 353.589 1067.328 C 354.670 1066.913, 354.538 1066.014, 352.932 1062.866 L 350.920 1058.924 353.960 1057.864 C 355.632 1057.281, 357 1056.398, 357 1055.902 C 357 1054.749, 357.675 1054.488, 349 1059 M 474.500 1058.453 C 467.717 1061.723, 466.171 1063.026, 471.459 1061.016 C 473.817 1060.119, 474.195 1060.342, 475.709 1063.516 C 476.623 1065.432, 477.962 1067, 478.685 1067 C 480.339 1067, 480.300 1066.149, 478.500 1063 C 476.416 1059.354, 476.643 1058.540, 480.250 1056.745 C 482.038 1055.856, 483.050 1055.117, 482.500 1055.103 C 481.950 1055.089, 478.350 1056.596, 474.500 1058.453 M 332.328 1066.938 C 330.033 1067.980, 327.356 1070.053, 326.378 1071.545 C 324.641 1074.197, 324.652 1074.300, 326.903 1076.122 C 330.169 1078.767, 337.121 1076.838, 341.413 1072.096 C 344.713 1068.450, 342.494 1068.818, 338.646 1072.556 C 335.708 1075.409, 334.322 1076.062, 331.735 1075.812 C 324.721 1075.135, 329.190 1067, 336.576 1067 C 338.394 1067, 340.160 1066.550, 340.500 1066 C 341.513 1064.362, 336.815 1064.901, 332.328 1066.938 M 455.172 1067.597 C 452.241 1068.935, 449.993 1070.361, 450.177 1070.765 C 450.360 1071.169, 451.163 1073.194, 451.961 1075.265 C 453.583 1079.471, 455.672 1079.753, 455.183 1075.699 C 454.826 1072.738, 455.976 1072.245, 464.500 1071.707 C 469.326 1071.403, 469.386 1071.363, 466.215 1070.564 C 463.202 1069.805, 463.056 1069.595, 464.465 1068.039 C 465.309 1067.106, 466 1066.040, 466 1065.671 C 466 1064.251, 460.267 1065.270, 455.172 1067.597 M 456.755 1067.846 C 453.223 1069.406, 452.008 1071.269, 453.799 1072.376 C 454.873 1073.039, 462.238 1068.825, 462.756 1067.250 C 463.293 1065.615, 461.375 1065.806, 456.755 1067.846 M 313.250 1075.984 C 309.813 1077.575, 307 1079.147, 307 1079.478 C 307 1079.809, 307.906 1081.855, 309.012 1084.024 L 311.025 1087.969 317.480 1084.786 C 324.681 1081.235, 325.759 1079.848, 318.899 1082.960 C 313.719 1085.311, 312 1085.488, 312 1083.671 C 312 1082.940, 314.249 1081.289, 316.997 1080.001 C 319.745 1078.714, 321.814 1077.481, 321.594 1077.261 C 321.374 1077.041, 319.368 1077.792, 317.137 1078.930 C 314.905 1080.069, 312.387 1081, 311.540 1081 C 308.531 1081, 310.071 1078.998, 315 1076.500 C 317.750 1075.106, 320 1073.749, 320 1073.483 C 320 1072.832, 320.303 1072.720, 313.250 1075.984 M 438.268 1075.661 C 437.590 1075.933, 436.551 1078.033, 435.958 1080.327 C 435.366 1082.622, 434.652 1085.287, 434.373 1086.250 C 433.586 1088.961, 435.930 1088.314, 436.989 1085.528 C 438.112 1082.574, 444.194 1079.760, 447.605 1080.616 C 451.859 1081.683, 450.146 1079.330, 445.255 1077.386 C 442.645 1076.349, 440.282 1075.425, 440.005 1075.333 C 439.727 1075.242, 438.945 1075.389, 438.268 1075.661 M 438 1079.381 C 438 1081.755, 438.172 1081.836, 441.076 1080.824 C 444.293 1079.702, 444.038 1078.690, 440.250 1077.545 C 438.333 1076.966, 438 1077.237, 438 1079.381 M 421 1084 C 416.875 1086.146, 413.860 1087.923, 414.300 1087.951 C 414.739 1087.978, 416.367 1087.344, 417.917 1086.543 C 420.700 1085.104, 420.756 1085.133, 422.485 1088.966 C 423.594 1091.427, 424.730 1092.657, 425.589 1092.328 C 426.672 1091.912, 426.548 1091.033, 424.966 1087.933 L 422.989 1084.057 425.994 1082.503 C 427.647 1081.648, 429 1080.735, 429 1080.474 C 429 1079.814, 429.312 1079.677, 421 1084 M 292.542 1085.931 C 292.101 1086.645, 293.852 1091.699, 295.620 1094.817 C 295.719 1094.991, 298.432 1093.775, 301.650 1092.115 C 304.867 1090.455, 307.145 1089.075, 306.710 1089.048 C 306.276 1089.022, 304.149 1089.904, 301.985 1091.008 L 298.049 1093.016 296.004 1089.008 C 293.844 1084.775, 293.465 1084.438, 292.542 1085.931 M 280.739 1091.568 L 273.979 1095.038 276.010 1099.019 C 277.127 1101.209, 278.206 1103, 278.408 1103 C 279.529 1103, 292.025 1096.692, 291.649 1096.315 C 291.401 1096.068, 288.887 1097.037, 286.062 1098.469 C 281.167 1100.949, 279 1101.077, 279 1098.884 C 279 1098.336, 281.363 1096.813, 284.250 1095.501 C 287.137 1094.189, 288.920 1093.089, 288.210 1093.058 C 287.501 1093.026, 285.123 1093.917, 282.926 1095.038 C 279.217 1096.930, 277 1096.958, 277 1095.112 C 277 1094.688, 279.280 1093.274, 282.066 1091.969 C 284.852 1090.664, 287.353 1089.237, 287.625 1088.798 C 288.313 1087.684, 288.285 1087.695, 280.739 1091.568 M 404.235 1091.980 C 400.178 1093.821, 398.025 1096.359, 399.375 1097.708 C 399.717 1098.050, 402.585 1097.607, 405.748 1096.724 C 408.912 1095.841, 411.861 1095.475, 412.301 1095.911 C 413.528 1097.123, 407.977 1100.310, 404.244 1100.536 C 399.756 1100.809, 398.808 1102.001, 403.083 1101.996 C 407.694 1101.991, 414.927 1097.588, 414.985 1094.750 C 415.009 1093.537, 410.571 1093.887, 406.152 1095.446 C 403.897 1096.242, 401.808 1096.498, 401.509 1096.015 C 400.679 1094.671, 405.106 1092, 408.163 1092 C 409.659 1092, 411.160 1091.550, 411.500 1091 C 412.493 1089.394, 408.849 1089.885, 404.235 1091.980 M 264.030 1099.583 C 260.270 1101.214, 257 1103.806, 257 1105.155 C 257 1106.452, 261.294 1106.160, 265.848 1104.554 C 268.103 1103.758, 270.174 1103.473, 270.450 1103.920 C 271.384 1105.431, 267.180 1108.166, 263.078 1108.716 C 260.835 1109.017, 259 1109.690, 259 1110.211 C 259 1111.485, 264.766 1110.220, 268.394 1108.151 C 271.700 1106.265, 273.782 1103.449, 272.682 1102.349 C 272.004 1101.671, 266.144 1102.845, 261.750 1104.539 C 260.579 1104.991, 260 1104.735, 260 1103.768 C 260 1102.048, 264.102 1100, 267.547 1100 C 268.896 1100, 270 1099.550, 270 1099 C 270 1097.623, 268.127 1097.806, 264.030 1099.583" stroke="none" fill="#365a8d" fill-rule="evenodd"/><path d="M 81.441 34.500 C 81.442 50.450, 81.580 56.835, 81.748 48.689 C 81.916 40.543, 81.916 27.493, 81.747 19.689 C 81.579 11.885, 81.441 18.550, 81.441 34.500 M 427.336 135 C 427.336 139.125, 427.513 140.813, 427.728 138.750 C 427.944 136.688, 427.944 133.313, 427.728 131.250 C 427.513 129.188, 427.336 130.875, 427.336 135 M 569.286 132.500 C 569.294 135.250, 569.488 136.256, 569.718 134.736 C 569.947 133.216, 569.941 130.966, 569.704 129.736 C 569.467 128.506, 569.279 129.750, 569.286 132.500 M 591.300 133 C 591.300 136.025, 591.487 137.262, 591.716 135.750 C 591.945 134.238, 591.945 131.762, 591.716 130.250 C 591.487 128.738, 591.300 129.975, 591.300 133 M 337.286 137.500 C 337.294 140.250, 337.488 141.256, 337.718 139.736 C 337.947 138.216, 337.941 135.966, 337.704 134.736 C 337.467 133.506, 337.279 134.750, 337.286 137.500 M 302.830 163.750 C 355.811 163.893, 442.211 163.893, 494.830 163.750 C 547.448 163.607, 504.100 163.490, 398.500 163.490 C 292.900 163.490, 249.848 163.607, 302.830 163.750 M 193.489 352 C 193.489 450.175, 193.606 490.338, 193.750 441.250 C 193.893 392.163, 193.893 311.838, 193.750 262.750 C 193.606 213.663, 193.489 253.825, 193.489 352 M 603.489 352 C 603.489 450.175, 603.606 490.338, 603.750 441.250 C 603.893 392.163, 603.893 311.838, 603.750 262.750 C 603.606 213.663, 603.489 253.825, 603.489 352 M 124.310 332.500 C 124.315 335.800, 124.502 337.029, 124.725 335.232 C 124.947 333.435, 124.943 330.735, 124.715 329.232 C 124.486 327.729, 124.304 329.200, 124.310 332.500 M 132.310 332.500 C 132.315 335.800, 132.502 337.029, 132.725 335.232 C 132.947 333.435, 132.943 330.735, 132.715 329.232 C 132.486 327.729, 132.304 329.200, 132.310 332.500 M 722.413 496.500 C 722.414 506.400, 722.564 510.315, 722.746 505.199 C 722.928 500.084, 722.927 491.984, 722.744 487.199 C 722.561 482.415, 722.412 486.600, 722.413 496.500 M 70.385 642 C 70.385 648.875, 70.545 651.688, 70.740 648.250 C 70.936 644.813, 70.936 639.188, 70.740 635.750 C 70.545 632.313, 70.385 635.125, 70.385 642 M 125.320 649 C 125.320 652.575, 125.502 654.038, 125.723 652.250 C 125.945 650.462, 125.945 647.538, 125.723 645.750 C 125.502 643.962, 125.320 645.425, 125.320 649 M 153.750 646.732 C 156.088 646.943, 159.912 646.943, 162.250 646.732 C 164.588 646.522, 162.675 646.349, 158 646.349 C 153.325 646.349, 151.412 646.522, 153.750 646.732 M 511.827 650.250 C 511.614 650.938, 511.724 653.525, 512.070 656 L 512.700 660.500 512.850 654.750 C 512.995 649.204, 512.637 647.632, 511.827 650.250 M 159.813 962.749 C 168.785 962.914, 183.185 962.914, 191.813 962.748 C 200.441 962.581, 193.100 962.446, 175.500 962.446 C 157.900 962.447, 150.841 962.583, 159.813 962.749" stroke="none" fill="#8b8d88" fill-rule="evenodd"/><path d="M 116.500 284.110 C 111.165 287.178, 109.304 294.482, 112.582 299.485 C 114.484 302.388, 119.817 304.335, 123.402 303.435 C 127.222 302.476, 131 297.506, 131 293.439 C 131 286.652, 122.071 280.907, 116.500 284.110" stroke="none" fill="#de1515" fill-rule="evenodd"/><path d="M 762.541 19.895 C 763.894 22.588, 765 25.676, 765 26.758 C 765 27.840, 766.395 30.474, 768.099 32.612 C 769.804 34.751, 772.167 38.300, 773.349 40.500 L 775.500 44.500 775.753 610.829 L 776.007 1177.157 770.811 1187.272 C 760.876 1206.613, 747.837 1220.683, 727.004 1234.541 C 709.787 1245.994, 694.431 1253.254, 669.802 1261.586 C 643.370 1270.529, 622.802 1274.943, 598.500 1276.889 C 557.445 1280.178, 529.596 1280.500, 286.500 1280.500 L 43.500 1280.500 38.887 1277.788 C 32.885 1274.260, 28.683 1269.387, 26.441 1263.355 C 25.448 1260.685, 22.883 1256.560, 20.741 1254.190 C 18.600 1251.819, 16.094 1248.219, 15.174 1246.190 C 13.617 1242.757, 13.465 1201.025, 12.998 647 L 12.496 51.500 12.255 651 C 12.095 1052.266, 12.350 1252.649, 13.029 1257 C 14.451 1266.122, 19.931 1276.887, 25.772 1282.037 C 31.346 1286.951, 35.410 1289.153, 43.530 1291.658 C 49.258 1293.425, 59.125 1293.500, 287 1293.500 C 524.502 1293.500, 544.877 1293.262, 593 1289.922 C 610.759 1288.690, 629.517 1285.908, 643.201 1282.478 C 711.936 1265.246, 760.420 1234.472, 780.229 1195.504 C 785.187 1185.751, 786.960 1179.304, 788.048 1167.065 C 788.743 1159.261, 788.983 975.834, 788.789 603 C 788.516 81.173, 788.403 50.180, 786.758 44.733 C 782.799 31.625, 775.870 22.502, 766.121 17.561 C 763.341 16.153, 760.845 15, 760.575 15 C 760.304 15, 761.189 17.203, 762.541 19.895 M 136.200 770.200 C 135.322 771.078, 135 779.133, 135 800.200 L 135 829 106.934 829 C 89.500 829, 78.136 829.392, 76.934 830.035 C 75.082 831.026, 75 832.465, 75 863.835 C 75 887.986, 75.315 896.915, 76.200 897.800 C 77.078 898.678, 85.133 899, 106.200 899 L 135 899 135 927.800 C 135 948.867, 135.322 956.922, 136.200 957.800 C 137.918 959.518, 202.082 959.518, 203.800 957.800 C 204.678 956.922, 205 948.867, 205 927.800 L 205 899 233.800 899 C 254.867 899, 262.922 898.678, 263.800 897.800 C 264.685 896.915, 265 887.986, 265 863.835 C 265 832.465, 264.918 831.026, 263.066 830.035 C 261.864 829.392, 250.500 829, 233.066 829 L 205 829 205 800.934 C 205 783.500, 204.608 772.136, 203.965 770.934 C 202.974 769.082, 201.535 769, 170.165 769 C 146.014 769, 137.085 769.315, 136.200 770.200 M 166.055 860.657 C 161.674 866.227, 168.623 873.389, 173.345 868.171 C 175.707 865.561, 175.434 861.418, 172.777 859.557 C 169.689 857.394, 168.465 857.594, 166.055 860.657" stroke="none" fill="#282d2f" fill-rule="evenodd"/><path d="M 30 7.075 C 23.535 9.993, 17.346 16.458, 14.990 22.755 C 13.282 27.321, 13 30.551, 13 45.538 L 13 63 43 63 L 73 63 73 34.500 L 73 6 77.500 6 L 82 6 82 34.500 L 82 63 398 63 L 714 63 714 34 L 714 5 374.250 5.022 C 34.925 5.044, 34.494 5.046, 30 7.075 M 723 34 L 723 63 744 63 L 765 63 765 45.538 C 765 25.465, 763.711 20.099, 757.308 13.505 C 751.100 7.113, 745.176 5.021, 733.250 5.010 L 723 5 723 34 M 13.334 394.666 C 13.700 572.133, 14 786.558, 14 871.166 L 14 1025 162.029 1025 L 310.057 1025 316 1022 C 319.269 1020.350, 322.743 1019.020, 323.721 1019.044 C 324.700 1019.068, 323.925 1019.665, 322 1020.371 C 315.678 1022.690, 253.628 1055.001, 251.303 1057.185 C 248.382 1059.929, 247.402 1065.142, 249.056 1069.135 C 250.573 1072.798, 255.355 1075.991, 259.332 1075.996 C 262.931 1076.001, 330.458 1041.649, 334.250 1037.884 C 336.243 1035.906, 337 1034.155, 337 1031.527 C 337 1025.350, 334.240 1021.708, 328 1019.652 C 327.062 1019.343, 327.330 1019.128, 328.715 1019.079 C 329.934 1019.036, 332.468 1020.350, 334.347 1022 L 337.764 1025 389.911 1025 L 442.057 1025 448 1022 C 451.269 1020.350, 455.418 1019.002, 457.221 1019.004 C 460.657 1019.008, 467 1022.241, 467 1023.988 C 467 1024.673, 515.621 1024.999, 616 1024.987 L 765 1024.968 765 548.484 L 765 72 388.834 72 L 12.668 72 13.334 394.666 M 90.385 106.617 C 84.374 108.749, 78.514 114.253, 75.311 120.776 L 72.500 126.500 72.500 353 C 72.500 565.869, 72.604 579.731, 74.236 583.338 C 77.194 589.880, 81.793 594.751, 87.792 597.697 L 93.500 600.500 369.500 600.500 L 645.500 600.500 653.999 598.165 C 686.297 589.292, 710.132 566.127, 719.555 534.451 C 722.092 525.922, 722.260 523.944, 723.124 492.500 C 723.622 474.350, 723.910 383.225, 723.765 290 L 723.500 120.500 720.704 115.744 C 718.765 112.445, 716.315 110.074, 712.704 108.004 L 707.500 105.019 401 105.088 C 135.027 105.149, 93.956 105.351, 90.385 106.617 M 291.667 128.667 C 291.300 129.033, 291 132.183, 291 135.667 L 291 142 294.929 142 C 299.925 142, 302 139.942, 302 134.985 C 302 132.118, 301.423 130.710, 299.777 129.557 C 297.513 127.970, 292.872 127.461, 291.667 128.667 M 306.073 130.635 C 302.072 135.721, 304.518 142, 310.500 142 C 316.450 142, 319.195 134.733, 314.961 130.189 C 312.200 127.225, 308.614 127.405, 306.073 130.635 M 318 129 C 318 129.550, 318.900 130, 320 130 C 321.778 130, 322 130.667, 322 136 C 322 139.333, 322.444 142, 323 142 C 323.556 142, 324 139.333, 324 136 C 324 130.230, 324.098 130, 326.559 130 C 328.010 130, 328.851 129.567, 328.500 129 C 328.160 128.450, 325.659 128, 322.941 128 C 320.223 128, 318 128.450, 318 129 M 335.688 128.646 C 334.597 129.736, 334.884 142, 336 142 C 336.550 142, 337.035 139.637, 337.078 136.750 L 337.155 131.500 338.893 136.439 C 339.849 139.155, 341.082 141.527, 341.633 141.711 C 342.184 141.895, 343.349 139.897, 344.222 137.272 L 345.809 132.500 345.904 137.250 C 346.059 144.931, 348 142.770, 348 134.917 C 348 126.925, 346.553 125.997, 344.319 132.556 C 341.892 139.685, 341.794 139.720, 340.090 134.075 C 338.516 128.863, 337.152 127.181, 335.688 128.646 M 351.846 134.995 C 349.986 139.958, 349.592 142, 350.494 142 C 351.194 142, 352.002 141.100, 352.290 140 C 352.649 138.626, 353.654 138, 355.500 138 C 357.346 138, 358.351 138.626, 358.710 140 C 358.998 141.100, 359.828 142, 360.554 142 C 361.508 142, 361.113 140.139, 359.136 135.316 C 357.630 131.640, 355.963 128.488, 355.433 128.311 C 354.904 128.135, 353.289 131.142, 351.846 134.995 M 362 129 C 362 129.550, 362.900 130, 364 130 C 365.778 130, 366 130.667, 366 136 C 366 139.333, 366.444 142, 367 142 C 367.556 142, 368 139.333, 368 136 C 368 130.230, 368.098 130, 370.559 130 C 372.010 130, 372.851 129.567, 372.500 129 C 372.160 128.450, 369.659 128, 366.941 128 C 364.223 128, 362 128.450, 362 129 M 374.667 128.667 C 373.590 129.743, 373.897 142, 375 142 C 375.550 142, 376 140.650, 376 139 C 376 134.878, 379.452 134.874, 381.797 138.994 C 382.733 140.640, 384.089 141.990, 384.809 141.994 C 386.181 142, 385.701 140.677, 383.323 137.893 C 382.153 136.525, 382.175 136.099, 383.475 135.021 C 385.587 133.268, 385.383 130.275, 383.066 129.035 C 380.896 127.874, 375.688 127.646, 374.667 128.667 M 388 135 C 388 139, 388.429 142, 389 142 C 389.571 142, 390 139, 390 135 C 390 131, 389.571 128, 389 128 C 388.429 128, 388 131, 388 135 M 394.048 131.578 L 396.260 135.157 394.042 138.157 C 392.822 139.807, 392.125 141.459, 392.493 141.827 C 392.862 142.195, 394.109 141.198, 395.266 139.610 L 397.368 136.724 399.640 139.573 C 402.665 143.367, 403.833 141.978, 400.982 137.975 L 398.746 134.835 400.961 131.839 C 403.820 127.972, 402.630 126.676, 399.652 130.412 L 397.392 133.247 395.673 130.623 C 393.044 126.611, 391.529 127.502, 394.048 131.578 M 409 128.586 C 409 131.486, 412.691 142, 413.709 142 C 414.419 142, 415.035 141.213, 415.077 140.250 C 415.119 139.287, 415.717 136.700, 416.405 134.500 L 417.656 130.500 418.987 136.250 C 419.719 139.412, 420.828 142, 421.450 142 C 422.072 142, 423.351 139.114, 424.291 135.586 C 426.273 128.149, 426.289 128, 425.108 128 C 424.617 128, 423.587 130.577, 422.818 133.727 L 421.420 139.454 420.126 133.672 C 418.559 126.672, 417.101 126.740, 414.939 133.913 L 413.356 139.167 412.106 133.584 C 411.419 130.513, 410.439 128, 409.928 128 C 409.418 128, 409 128.264, 409 128.586 M 428 135 C 428 139, 428.429 142, 429 142 C 429.571 142, 430 139, 430 135 C 430 131, 429.571 128, 429 128 C 428.429 128, 428 131, 428 135 M 432 129 C 432 129.550, 432.900 130, 434 130 C 435.778 130, 436 130.667, 436 136 C 436 139.333, 436.444 142, 437 142 C 437.556 142, 438 139.333, 438 136 C 438 130.667, 438.222 130, 440 130 C 441.100 130, 442 129.550, 442 129 C 442 128.450, 439.750 128, 437 128 C 434.250 128, 432 128.450, 432 129 M 444 135 C 444 139, 444.429 142, 445 142 C 445.550 142, 446 140.650, 446 139 C 446 136.238, 446.278 136, 449.500 136 C 452.722 136, 453 136.238, 453 139 C 453 140.650, 453.450 142, 454 142 C 454.563 142, 455 139.186, 455 135.559 C 455 132.016, 454.550 128.840, 454 128.500 C 453.417 128.139, 453 129.156, 453 130.941 C 453 133.770, 452.737 134, 449.500 134 C 446.278 134, 446 133.762, 446 131 C 446 129.350, 445.550 128, 445 128 C 444.429 128, 444 131, 444 135 M 463.571 129.571 C 460.963 132.180, 461.923 134.183, 466.500 135.683 C 468.150 136.223, 469.645 137.416, 469.823 138.333 C 470.272 140.644, 465.159 140.578, 463.392 138.250 C 462.213 136.697, 462.060 136.683, 462.032 138.128 C 461.983 140.640, 464.531 142.169, 468.185 141.818 C 470.980 141.550, 471.550 141.060, 471.821 138.698 C 472.104 136.238, 471.644 135.699, 468.071 134.296 C 465.832 133.416, 464 132.301, 464 131.817 C 464 130.221, 467.229 129.662, 469.230 130.911 C 471.851 132.549, 473.028 131.225, 470.557 129.418 C 468.024 127.566, 465.522 127.621, 463.571 129.571 M 474 129 C 474 129.550, 474.900 130, 476 130 C 477.778 130, 478 130.667, 478 136 C 478 139.333, 478.444 142, 479 142 C 479.556 142, 480 139.333, 480 136 C 480 130.667, 480.222 130, 482 130 C 483.100 130, 484 129.550, 484 129 C 484 128.450, 481.750 128, 479 128 C 476.250 128, 474 128.450, 474 129 M 486 135 L 486 142 491 142 C 493.750 142, 496 141.550, 496 141 C 496 140.450, 494.200 140, 492 140 C 488.667 140, 488 139.667, 488 138 C 488 136.381, 488.667 136, 491.500 136 C 493.425 136, 495 135.550, 495 135 C 495 134.450, 493.425 134, 491.500 134 C 488.667 134, 488 133.619, 488 132 C 488 130.328, 488.667 130, 492.059 130 C 494.510 130, 495.873 129.604, 495.500 129 C 495.160 128.450, 492.884 128, 490.441 128 L 486 128 486 135 M 498 135 C 498 139, 498.429 142, 499 142 C 499.550 142, 500 140.650, 500 139 C 500 136.696, 500.451 136, 501.943 136 C 503.042 136, 504.657 137.304, 505.659 139 C 506.634 140.650, 508.040 142, 508.784 142 C 509.758 142, 509.561 141.192, 508.080 139.112 C 506.279 136.583, 506.209 136.072, 507.512 134.990 C 511.309 131.839, 508.044 128, 501.566 128 L 498 128 498 135 M 512 135 L 512 142 517.059 142 C 520.177 142, 521.881 141.616, 521.500 141 C 521.160 140.450, 519.109 140, 516.941 140 C 513.667 140, 513 139.662, 513 138 C 513 136.333, 513.667 136, 517 136 C 519.200 136, 521 135.550, 521 135 C 521 134.450, 519.167 134, 516.927 134 C 513.588 134, 512.913 133.685, 513.185 132.250 C 513.417 131.027, 514.643 130.407, 517.258 130.190 C 522.535 129.752, 521.928 128, 516.500 128 L 512 128 512 135 M 524.994 130.734 C 523.441 132.709, 523.006 134.280, 523.428 136.389 C 524.270 140.601, 525.801 142, 529.566 142 C 535.421 142, 538.275 134.275, 534 130 C 531.174 127.174, 527.563 127.469, 524.994 130.734 M 544.569 129.326 C 541.890 131.285, 543.371 134.780, 547.312 135.801 C 551.442 136.871, 552.278 140, 548.434 140 C 546.941 140, 545.123 139.213, 544.392 138.250 C 543.274 136.777, 543.059 136.746, 543.032 138.050 C 542.987 140.247, 545.022 142, 547.618 142 C 551.381 142, 553 140.891, 553 138.313 C 553 136.355, 552.165 135.511, 549 134.268 C 546.800 133.404, 545 132.301, 545 131.817 C 545 130.221, 548.229 129.662, 550.230 130.911 C 552.779 132.504, 553.556 131.698, 551.476 129.619 C 549.511 127.654, 547.001 127.548, 544.569 129.326 M 557 130 C 552.695 134.305, 555.581 142, 561.500 142 C 567.482 142, 569.928 135.721, 565.927 130.635 C 563.437 127.468, 559.791 127.209, 557 130 M 570 133.800 C 570 140.197, 571.099 142, 575 142 C 576.430 142, 578.140 141.460, 578.800 140.800 C 580.267 139.333, 580.457 127.599, 579 128.500 C 578.450 128.840, 578 131.596, 578 134.625 C 578 140.044, 577.955 140.128, 575.250 139.816 C 572.647 139.517, 572.484 139.193, 572.200 133.750 C 571.809 126.243, 570 126.284, 570 133.800 M 583 135 C 583 139, 583.429 142, 584 142 C 584.550 142, 585 139.638, 585 136.752 L 585 131.504 588.227 136.752 C 592.623 143.900, 594 143.615, 594 135.559 C 594 127.703, 592.229 125.814, 591.803 133.215 L 591.500 138.483 588.146 133.241 C 586.301 130.359, 584.388 128, 583.896 128 C 583.403 128, 583 131.150, 583 135 M 596.667 128.667 C 596.300 129.033, 596 132.183, 596 135.667 L 596 142 600.378 142 C 605.564 142, 607.156 140.482, 607.300 135.402 C 607.376 132.707, 606.795 131.253, 605.091 129.873 C 602.826 128.039, 597.987 127.346, 596.667 128.667 M 293 135.063 L 293 140.127 296.250 139.813 C 299.123 139.536, 299.537 139.115, 299.818 136.185 C 300.200 132.212, 298.611 130, 295.378 130 C 293.187 130, 293 130.399, 293 135.063 M 306.972 132.052 C 305.457 134.882, 306.108 138.012, 308.546 139.622 C 310.287 140.772, 310.922 140.743, 312.796 139.430 C 315.179 137.762, 315.608 135.005, 313.965 131.934 C 312.583 129.353, 308.379 129.424, 306.972 132.052 M 376 131.937 C 376 133.636, 376.630 134, 379.573 134 C 382.436 134, 383.081 133.652, 382.815 132.250 C 382.597 131.097, 381.377 130.393, 379.242 130.187 C 376.532 129.925, 376 130.212, 376 131.937 M 500 132 C 500 133.797, 500.504 134.078, 503.250 133.813 C 505.333 133.613, 506.500 132.961, 506.500 132 C 506.500 131.039, 505.333 130.387, 503.250 130.187 C 500.504 129.922, 500 130.203, 500 132 M 526.035 131.934 C 524.503 134.798, 524.766 136.766, 526.977 138.977 C 528.963 140.963, 531.720 140.785, 533.235 138.573 C 534.383 136.895, 534.126 132.526, 532.800 131.200 C 530.963 129.363, 527.192 129.772, 526.035 131.934 M 558.200 131.200 C 554.738 134.662, 558.981 142.151, 563.143 139.924 C 565.522 138.650, 566.472 134.750, 565.050 132.093 C 563.816 129.788, 560.097 129.303, 558.200 131.200 M 598 135 C 598 139.867, 598.078 140, 600.941 140 C 604.383 140, 605.328 138.828, 605.211 134.704 C 605.117 131.395, 603.681 130.039, 600.250 130.015 C 598.215 130.001, 598 130.477, 598 135 M 354.675 132.405 C 353.646 135.087, 353.855 136, 355.500 136 C 357.143 136, 357.238 135.465, 356.105 132.573 C 355.404 130.785, 355.301 130.773, 354.675 132.405 M 97.667 325.667 C 97.300 326.033, 97 328.958, 97 332.167 L 97 338 100.378 338 C 102.235 338, 104.252 337.401, 104.860 336.669 C 106.285 334.952, 105.500 326.933, 103.802 325.856 C 102.227 324.858, 98.588 324.745, 97.667 325.667 M 111.512 325.981 C 110.011 328.410, 107.198 338, 107.986 338 C 108.470 338, 109.151 337.100, 109.500 336 C 109.899 334.743, 111.013 334, 112.500 334 C 113.987 334, 115.101 334.743, 115.500 336 C 115.849 337.100, 116.585 338, 117.135 338 C 118.247 338, 117.664 335.728, 114.891 329.250 C 112.991 324.813, 112.517 324.354, 111.512 325.981 M 119 326 C 119 326.550, 119.675 327, 120.500 327 C 121.631 327, 122 328.216, 122 331.941 C 122 334.659, 122.450 337.160, 123 337.500 C 123.621 337.884, 124 336.010, 124 332.559 C 124 327.667, 124.240 327, 126 327 C 127.100 327, 128 326.550, 128 326 C 128 325.450, 125.975 325, 123.500 325 C 121.025 325, 119 325.450, 119 326 M 129 326 C 129 326.550, 129.900 327, 131 327 C 132.760 327, 133 327.667, 133 332.559 C 133 336.010, 133.379 337.884, 134 337.500 C 134.550 337.160, 135 334.659, 135 331.941 C 135 328.216, 135.369 327, 136.500 327 C 137.325 327, 138 326.550, 138 326 C 138 325.450, 135.975 325, 133.500 325 C 131.025 325, 129 325.450, 129 326 M 139 331.500 L 139 338 143.500 338 C 145.975 338, 148 337.550, 148 337 C 148 336.450, 146.425 336, 144.500 336 C 141.667 336, 141 335.619, 141 334 C 141 332.444, 141.667 332, 144 332 C 145.650 332, 147 331.550, 147 331 C 147 330.450, 145.650 330, 144 330 C 142 330, 141 329.500, 141 328.500 C 141 327.448, 142.062 327, 144.559 327 C 146.677 327, 147.868 326.595, 147.500 326 C 147.160 325.450, 145.109 325, 142.941 325 L 139 325 139 331.500 M 149.667 325.667 C 148.595 326.738, 148.899 338, 150 338 C 150.550 338, 151 336.650, 151 335 C 151 331.061, 153.213 331.086, 156.041 335.058 C 158.579 338.622, 160.038 338.233, 157.672 334.623 C 156.274 332.489, 156.257 332.031, 157.537 330.969 C 159.402 329.422, 159.380 328.523, 157.429 326.571 C 155.852 324.994, 150.914 324.419, 149.667 325.667 M 159.022 325.750 C 159.034 326.163, 159.924 327.625, 161 329 C 162.076 330.375, 162.966 332.962, 162.978 334.750 C 162.990 336.538, 163.450 338, 164 338 C 164.550 338, 165 336.816, 165 335.368 C 165 333.920, 165.951 331.197, 167.114 329.315 C 169.577 325.330, 168.979 323.576, 166.465 327.413 C 164.352 330.638, 163.619 330.653, 162.182 327.500 C 161.134 325.199, 158.970 324.001, 159.022 325.750 M 99 328.430 C 99 329.451, 99.903 330, 101.583 330 C 104.716 330, 104.373 327.652, 101.172 327.180 C 99.729 326.968, 99 327.388, 99 328.430 M 151 329 C 151 330.737, 151.511 331.074, 153.750 330.816 C 155.387 330.628, 156.500 329.893, 156.500 329 C 156.500 328.107, 155.387 327.372, 153.750 327.184 C 151.511 326.926, 151 327.263, 151 329 M 99 333.930 C 99 335.487, 99.638 336, 101.573 336 C 104.856 336, 104.564 332.655, 101.240 332.180 C 99.539 331.938, 99 332.359, 99 333.930 M 265.921 618.328 C 257.091 621.581, 252.275 628.029, 249.987 639.663 C 248.614 646.642, 249.627 651.448, 253.143 654.629 C 256.493 657.661, 266.186 657.178, 272.583 653.659 C 277.556 650.925, 277.705 650.707, 279.428 643.682 C 280.397 639.732, 281.409 635.938, 281.678 635.250 C 282.043 634.317, 280.253 634, 274.630 634 L 267.094 634 266.053 637.750 C 264.625 642.892, 264.602 642.834, 268.190 643.187 C 271.231 643.485, 271.298 643.581, 269.620 645.248 C 268.652 646.210, 266.691 647.291, 265.261 647.649 C 261.815 648.514, 258.749 644.995, 259.596 641.147 C 261.771 631.277, 264.664 627, 269.166 627 C 271.360 627, 272.332 627.555, 272.718 629.028 C 273.052 630.306, 273.849 630.888, 274.874 630.603 C 275.768 630.353, 277.962 629.855, 279.750 629.495 C 282.508 628.940, 283 628.408, 283 625.976 C 283 619.355, 274.033 615.339, 265.921 618.328 M 449.275 617.940 C 442.135 619.704, 436.072 626.506, 433.377 635.776 L 431.806 641.180 430.379 638.430 C 429.088 635.940, 429.138 635.482, 430.910 633.590 C 435.318 628.883, 435.892 621.083, 431.984 618.992 C 430.965 618.446, 425.674 618, 420.225 618 L 410.318 618 405.327 636.750 L 400.335 655.500 409.418 655.811 C 423.413 656.291, 427.677 654.375, 430.551 646.316 L 431.912 642.500 431.956 645.800 C 431.980 647.614, 432.667 650.389, 433.483 651.966 C 436.327 657.468, 446.818 658.420, 453.590 653.792 C 459.904 649.477, 465 638.629, 465 629.505 C 465 624.921, 464.553 623.549, 462.250 621.059 C 459.214 617.778, 454.510 616.647, 449.275 617.940 M 290.684 634.750 C 285.498 643.962, 280.732 652.513, 280.092 653.750 C 278.961 655.939, 279.066 656, 283.939 656 C 288.494 656, 289.089 655.728, 290.500 653 C 291.907 650.280, 292.513 650, 297.001 650 L 301.950 650 301.350 653 L 300.750 656 306.522 656 L 312.293 656 311.647 648.349 C 311.291 644.141, 311 635.591, 311 629.349 L 311 618 305.557 618 L 300.113 618 290.684 634.750 M 325.508 619.250 C 324.725 621.530, 316 654.630, 316 655.321 C 316 655.695, 317.787 656, 319.972 656 C 323.911 656, 323.956 655.957, 325.407 650.750 C 326.211 647.862, 327.561 643.250, 328.406 640.500 L 329.943 635.500 329.391 645.750 L 328.840 656 332.740 656 L 336.640 656 340.960 646.474 C 343.336 641.234, 345.471 637.138, 345.705 637.371 C 345.938 637.604, 345.006 641.891, 343.634 646.898 L 341.140 656 345.400 656 L 349.660 656 354.340 638.250 C 356.915 628.487, 359.016 619.938, 359.010 619.250 C 359.003 618.389, 357.118 618, 352.948 618 L 346.897 618 342.156 628.172 L 337.415 638.345 337.824 628.172 L 338.233 618 332.085 618 C 328.062 618, 325.789 618.432, 325.508 619.250 M 368.508 619.250 C 367.725 621.530, 359 654.630, 359 655.321 C 359 655.695, 364.636 656, 371.525 656 C 384.049 656, 384.050 656, 385.025 653.435 C 387.261 647.552, 386.701 647, 378.500 647 C 374.375 647, 371 646.842, 371 646.649 C 371 646.456, 371.494 644.881, 372.098 643.149 C 373.184 640.033, 373.267 640, 380 640 C 386.733 640, 386.816 639.967, 387.902 636.851 C 388.506 635.119, 389 633.319, 389 632.851 C 389 632.383, 385.912 632, 382.139 632 C 375.359 632, 375.283 631.970, 375.755 629.500 C 376.216 627.089, 376.509 627, 384.008 627 C 391.664 627, 391.793 626.958, 392.439 624.250 C 392.800 622.737, 393.329 620.712, 393.615 619.750 C 394.091 618.148, 393.066 618, 381.536 618 C 372.353 618, 368.821 618.339, 368.508 619.250 M 466 618.612 C 466 618.948, 467.214 623.908, 468.698 629.634 L 471.396 640.044 469.282 648.071 L 467.168 656.099 472.277 655.799 L 477.385 655.500 479.442 647.947 C 481.217 641.433, 482.600 638.989, 489.500 630.177 C 493.900 624.557, 497.650 619.518, 497.833 618.980 C 498.022 618.425, 495.973 618, 493.116 618 C 488.156 618, 487.989 618.100, 483.861 623.569 C 479.287 629.626, 478.721 629.509, 477.525 622.250 L 476.824 618 471.412 618 C 468.435 618, 466 618.275, 466 618.612 M 417.399 629.547 C 416.567 632.863, 417.420 633.589, 420.770 632.416 C 422.447 631.828, 423.623 630.600, 423.820 629.230 C 424.090 627.341, 423.673 627, 421.089 627 C 418.654 627, 417.909 627.514, 417.399 629.547 M 447.904 628.282 C 444.316 631.020, 441.145 640.730, 442.472 644.913 C 443.315 647.569, 448.020 647.741, 450.319 645.200 C 452.380 642.923, 455 635.576, 455 632.074 C 455 627.517, 451.416 625.601, 447.904 628.282 M 70 642 L 70 655 72.462 655 C 74.880 655, 74.930 654.832, 75.212 645.794 L 75.500 636.588 82.947 645.794 C 89.133 653.441, 90.869 655, 93.197 655 L 96 655 96 642 L 96 629 93.536 629 C 91.113 629, 91.068 629.155, 90.786 638.390 L 90.500 647.780 83 638.404 C 76.824 630.683, 75.015 629.025, 72.750 629.014 L 70 629 70 642 M 101 631 C 101 632.467, 101.667 633, 103.500 633 C 105.333 633, 106 632.467, 106 631 C 106 629.533, 105.333 629, 103.500 629 C 101.667 629, 101 629.533, 101 631 M 209 632.930 C 209 636.737, 208.913 636.836, 206.250 636.094 C 202.524 635.056, 197.425 636.554, 195.545 639.239 C 193.575 642.052, 193.552 648.915, 195.503 651.701 C 197.511 654.568, 202.994 656.333, 206.157 655.131 C 207.501 654.619, 209.816 654.433, 211.301 654.717 L 214 655.233 214 642.117 L 214 629 211.500 629 C 209.257 629, 209 629.405, 209 632.930 M 137.250 630.662 C 136.563 630.940, 136 632.254, 136 633.583 C 136 635.065, 135.420 636, 134.500 636 C 133.675 636, 133 636.675, 133 637.500 C 133 638.325, 133.656 639, 134.458 639 C 135.585 639, 135.982 640.761, 136.208 646.750 L 136.500 654.500 140.741 654.807 C 144.123 655.052, 144.868 654.819, 144.421 653.656 C 144.114 652.853, 142.993 651.970, 141.931 651.692 C 140.290 651.263, 140 650.273, 140 645.094 C 140 639.667, 140.219 639, 142 639 C 143.111 639, 144 638.333, 144 637.500 C 144 636.667, 143.111 636, 142 636 C 140.444 636, 140 635.333, 140 633 C 140 630.014, 139.632 629.701, 137.250 630.662 M 299.199 635.527 C 296.477 641.129, 296.470 641, 299.500 641 C 301.833 641, 302 640.667, 302 636 C 302 633.250, 301.865 631, 301.699 631 C 301.534 631, 300.409 633.037, 299.199 635.527 M 153.833 635.808 C 149.264 636.337, 146 640.263, 146 645.230 C 146 650.773, 148.079 653.675, 152.999 655 C 157.688 656.262, 161.684 655.478, 164.750 652.694 C 167.562 650.141, 167.574 649.383, 164.813 648.661 C 163.320 648.271, 162.191 648.710, 161.256 650.045 C 159.019 653.238, 151 652.003, 151 648.465 C 151 647.300, 152.641 647, 159 647 L 167 647 167 644.136 C 167 638.695, 161.106 634.967, 153.833 635.808 M 225.827 635.792 C 221.464 636.324, 218 640.582, 218 645.414 C 218 650.698, 220.095 653.656, 224.748 654.941 C 232.834 657.174, 239.500 652.873, 239.500 645.423 C 239.500 638.649, 234.024 634.791, 225.827 635.792 M 101 645.500 C 101 654.967, 101.009 655, 103.500 655 C 105.991 655, 106 654.967, 106 645.500 C 106 636.033, 105.991 636, 103.500 636 C 101.009 636, 101 636.033, 101 645.500 M 111 645.652 C 111 654.333, 111.143 655, 113 655 C 114.730 655, 115 654.333, 115 650.065 C 115 643.462, 116.374 640.195, 119.478 639.416 C 123.710 638.354, 125 640.388, 125 648.122 C 125 654.792, 125.076 655, 127.500 655 C 129.938 655, 130 654.818, 130 647.723 C 130 637.025, 128.984 635.962, 118.944 636.153 L 111 636.304 111 645.652 M 171 645.500 C 171 654.967, 171.009 655, 173.500 655 C 175.927 655, 176 654.798, 176 648.035 C 176 641.991, 176.277 640.922, 178.093 639.950 C 179.244 639.334, 181.269 639.102, 182.593 639.434 C 184.867 640.005, 185 640.451, 185 647.519 C 185 654.832, 185.056 655, 187.500 655 C 189.954 655, 190 654.856, 190 647.155 C 190 640.825, 189.647 638.990, 188.171 637.655 C 186.015 635.704, 178.001 635.399, 176.200 637.200 C 175.267 638.133, 175 638.133, 175 637.200 C 175 636.540, 174.100 636, 173 636 C 171.140 636, 171 636.667, 171 645.500 M 152.750 640.080 C 149.563 641.936, 150.929 643, 156.500 643 C 162.136 643, 163.495 641.870, 160.066 640.035 C 157.649 638.742, 155.020 638.758, 152.750 640.080 M 200.750 640.080 C 198.169 641.584, 198.304 649.557, 200.934 650.965 C 206.044 653.699, 210.788 649.863, 209.507 644.032 C 208.538 639.619, 204.596 637.840, 200.750 640.080 M 224.655 640.829 C 222.561 643.142, 222.516 648.373, 224.571 650.429 C 228.363 654.220, 235 650.942, 235 645.277 C 235 640.103, 228.026 637.104, 224.655 640.829 M 413.630 643.250 C 412.673 646.821, 412.809 647, 416.465 647 C 418.918 647, 420.245 646.410, 421.011 644.979 C 422.503 642.191, 421.469 641, 417.558 641 C 414.955 641, 414.102 641.489, 413.630 643.250 M 486 645.452 C 486 646.437, 486.910 647, 488.500 647 C 490.931 647, 491 647.194, 491 654.083 C 491 659.304, 491.329 661.058, 492.250 660.754 C 493.041 660.492, 493.608 657.893, 493.796 653.670 C 494.079 647.273, 494.195 647, 496.629 647 C 498.213 647, 499.012 646.530, 498.754 645.750 C 498.498 644.976, 495.991 644.387, 492.171 644.202 C 487.139 643.960, 486 644.190, 486 645.452 M 500 652.510 C 500 658.988, 500.315 661.063, 501.250 660.755 C 501.938 660.529, 502.742 658.579, 503.039 656.422 L 503.577 652.500 504.353 655.681 C 504.780 657.430, 505.775 659.398, 506.564 660.053 C 507.743 661.031, 508.268 660.602, 509.500 657.654 C 510.325 655.680, 511.068 653.487, 511.150 652.782 C 511.233 652.077, 511.570 653.490, 511.900 655.922 C 512.230 658.355, 513.063 660.530, 513.750 660.756 C 514.685 661.063, 515 658.988, 515 652.510 C 515 644.949, 514.788 643.894, 513.324 644.177 C 512.313 644.372, 510.832 646.769, 509.594 650.210 L 507.541 655.920 505.521 650.223 C 504.248 646.637, 502.852 644.402, 501.750 644.190 C 500.192 643.890, 500 644.804, 500 652.510 M 135.571 769.571 C 134.217 770.926, 134 775.057, 134 799.528 L 134 827.913 104.963 828.207 C 80.460 828.454, 75.777 828.734, 74.978 830 C 74.431 830.865, 74.024 845.576, 74.015 864.764 L 74 898.027 79.436 900.514 C 84.756 902.947, 85.394 903, 109.436 903 L 134 903 134 930.300 C 134 958.469, 134.210 960, 138.078 960 C 139 960, 140.315 960.675, 141 961.500 C 142.915 963.808, 207.117 963.741, 209.429 961.429 C 210.783 960.074, 211 955.939, 211 931.429 L 211 903 238.435 903 C 253.841 903, 266.995 902.572, 268.435 902.025 L 271 901.050 271 867.077 L 271 833.105 265.918 830.553 C 260.876 828.020, 260.640 828, 235.918 828 L 211 828 211 800.700 C 211 772.531, 210.790 771, 206.922 771 C 206 771, 204.685 770.325, 204 769.500 C 202.085 767.192, 137.883 767.259, 135.571 769.571 M 667.919 776.833 C 633.532 785.810, 621.652 828.864, 646.401 854.811 C 652.626 861.337, 664.250 868.049, 673.500 870.458 C 700.529 877.498, 727.537 859.915, 732.188 832.250 C 735.617 811.856, 724.599 791.519, 704.843 781.775 C 690.931 774.913, 680.580 773.528, 667.919 776.833 M 551.112 836.121 C 537.343 837.820, 522.574 848.030, 516.451 860.084 C 507.185 878.321, 509.925 901.199, 523.084 915.475 C 528.409 921.253, 541.278 927.640, 550.750 929.207 C 578.591 933.814, 605.061 911.282, 604.985 883.040 C 604.965 875.339, 602.483 865.587, 598.989 859.480 C 592.567 848.256, 578.261 837.912, 567.233 836.520 C 564.630 836.191, 561.375 835.789, 560 835.627 C 558.625 835.465, 554.625 835.687, 551.112 836.121 M 712.128 893.803 L 708.755 895.479 709.371 901.989 C 709.709 905.570, 709.989 910.872, 709.993 913.770 L 710 919.041 714 917 C 716.606 915.671, 718 914.278, 718 913.005 C 718 910.265, 723.733 907.352, 726.153 908.864 C 727.548 909.735, 728.704 909.517, 731.529 907.850 C 733.508 906.683, 734.761 905.371, 734.314 904.937 C 731.379 902.084, 717.532 892.012, 716.618 892.064 C 716.003 892.099, 713.982 892.882, 712.128 893.803 M 716.491 902 C 717.475 905.249, 717.826 905.574, 719.040 904.360 C 719.716 903.684, 719.338 902.719, 717.891 901.426 C 715.737 899.502, 715.735 899.503, 716.491 902 M 584.750 953.062 C 580.487 955.241, 577 957.253, 577 957.532 C 577 957.811, 579.031 962.084, 581.513 967.026 L 586.026 976.012 593.263 972.399 C 597.243 970.411, 601.513 967.855, 602.750 966.718 C 606.476 963.296, 605.273 957, 600.894 957 C 599.670 957, 599.338 956.424, 599.719 954.967 C 600.387 952.414, 597.415 948.983, 594.595 949.050 C 593.443 949.077, 589.013 950.883, 584.750 953.062 M 588.122 956.904 C 587.364 957.384, 587.054 958.278, 587.433 958.891 C 588.226 960.175, 592 958.583, 592 956.965 C 592 955.770, 589.963 955.738, 588.122 956.904 M 592.769 963.295 C 590.765 964.179, 590.277 964.878, 590.934 965.921 C 591.695 967.129, 592.221 967.085, 594.447 965.627 C 595.886 964.684, 596.798 963.482, 596.473 962.956 C 596.148 962.430, 595.796 962.020, 595.691 962.045 C 595.586 962.070, 594.271 962.632, 592.769 963.295" stroke="none" fill="#babdb6" fill-rule="evenodd"/><path d="M 73.765 34.750 L 73.500 63.500 43.750 63.765 L 14 64.030 14 67.515 L 14 71 389.500 71 L 765 71 765 67.520 L 765 64.040 743.750 63.770 L 722.500 63.500 722.235 34.750 L 721.969 6 718.485 6 L 715 6 715 35 L 715 64 398 64 L 81 64 81 35 L 81 6 77.515 6 L 74.031 6 73.765 34.750 M 205 800.430 L 205 829 207.516 829 L 210.031 829 209.766 800.750 L 209.500 772.500 207.250 772.180 L 205 771.861 205 800.430 M 74.447 864 C 74.447 881.875, 74.582 889.188, 74.748 880.250 C 74.914 871.313, 74.914 856.688, 74.748 847.750 C 74.582 838.813, 74.447 846.125, 74.447 864 M 265 864.300 C 265 888.089, 264.684 896.916, 263.800 897.800 C 262.922 898.678, 254.867 899, 233.800 899 L 205 899 205 927.418 C 205 943.048, 204.727 956.548, 204.393 957.418 C 203.857 958.815, 200.042 959, 171.771 959 C 143.426 959, 139.898 959.172, 141 960.500 C 142.060 961.777, 147.096 962, 174.922 962 C 199.005 962, 207.916 961.684, 208.800 960.800 C 209.678 959.922, 210 951.867, 210 930.800 L 210 902 238.800 902 C 259.867 902, 267.922 901.678, 268.800 900.800 C 269.685 899.915, 270 890.890, 270 866.407 C 270 831.651, 270.041 832, 265.918 832 C 265.380 832, 265 845.351, 265 864.300 M 81.441 900.522 C 84.086 902.536, 135.418 902.755, 134.750 900.750 C 134.433 899.798, 127.797 899.446, 106.917 899.272 C 82.548 899.069, 79.716 899.208, 81.441 900.522 M 418.142 1038.179 C 379.338 1058.074, 378.434 1058.733, 379.373 1066.407 C 379.693 1069.019, 380.876 1071.338, 382.945 1073.407 C 388.651 1079.113, 390.107 1078.640, 429.495 1058.298 C 451.027 1047.178, 465.201 1039.272, 466.340 1037.747 C 470.088 1032.727, 468.263 1024.221, 462.835 1021.415 C 457.186 1018.493, 454.764 1019.401, 418.142 1038.179 M 683.315 1025.985 C 680.648 1027.086, 679 1029.973, 679 1033.543 C 679 1036.390, 732.648 1128.638, 736.695 1132.750 C 739.690 1135.794, 744.386 1135.705, 747.545 1132.545 C 750.395 1129.696, 750.628 1127.115, 748.421 1122.848 C 744.547 1115.355, 693.587 1029.323, 692.129 1027.813 C 690.040 1025.650, 686.105 1024.834, 683.315 1025.985 M 644 1049 C 642.063 1050.937, 641.581 1052.627, 641.943 1056.222 C 642.157 1058.351, 696.409 1150.637, 699.276 1153.750 C 702.313 1157.047, 708.184 1156.853, 710.927 1153.365 C 712.067 1151.916, 713 1149.813, 713 1148.691 C 713 1146.373, 656.712 1050.170, 654.232 1048.250 C 651.745 1046.324, 646.275 1046.725, 644 1049 M 606.635 1070.073 C 601.594 1074.038, 602.321 1075.810, 624.278 1113.080 C 662.571 1178.078, 661.166 1175.826, 664.186 1177.077 C 669.562 1179.304, 675.881 1174.390, 674.815 1168.811 C 674.237 1165.789, 618.340 1070.985, 616.157 1069.324 C 613.665 1067.428, 609.589 1067.749, 606.635 1070.073 M 566.994 1091.735 C 565.689 1093.394, 564.991 1095.460, 565.219 1096.985 C 565.664 1099.948, 621.396 1194.919, 623.765 1196.750 C 626.256 1198.675, 631.725 1198.275, 634 1196 C 635.933 1194.067, 636.417 1192.376, 636.062 1188.805 C 635.854 1186.720, 581.565 1094.383, 578.705 1091.250 C 575.651 1087.904, 569.817 1088.146, 566.994 1091.735 M 528.455 1110.455 C 526.959 1111.950, 526.027 1114.002, 526.069 1115.705 C 526.112 1117.491, 536.488 1135.999, 554.819 1166.987 C 585.695 1219.185, 585.938 1219.511, 592.113 1216.953 C 595.516 1215.544, 597 1213.271, 597 1209.467 C 597 1206.481, 542.288 1112.675, 538.841 1109.750 C 535.876 1107.234, 531.370 1107.540, 528.455 1110.455 M 491.040 1132.806 C 487.818 1136.028, 487.276 1138.746, 489.142 1142.316 C 494.361 1152.299, 544.715 1236.893, 546.247 1238.250 C 548.883 1240.586, 555.193 1240.549, 557.333 1238.184 C 561.789 1233.260, 561.982 1233.679, 531.493 1182 C 515.756 1155.325, 502.338 1132.948, 501.676 1132.272 C 501.015 1131.597, 499.035 1130.757, 497.277 1130.405 C 494.593 1129.869, 493.592 1130.254, 491.040 1132.806" stroke="none" fill="#434541" fill-rule="evenodd"/><path d="M 106 127.500 C 106 128.821, 116 129, 190 129 C 264 129, 274 128.821, 274 127.500 C 274 126.179, 264 126, 190 126 C 116 126, 106 126.179, 106 127.500 M 621 127.500 C 621 128.805, 625.611 129, 656.500 129 C 687.389 129, 692 128.805, 692 127.500 C 692 126.195, 687.389 126, 656.500 126 C 625.611 126, 621 126.195, 621 127.500 M 715.157 790.664 C 724.007 800.264, 727.422 810.277, 726.835 824.899 C 726.490 833.494, 726.054 835.354, 722.759 842.292 C 717.846 852.638, 710.637 859.845, 700.280 864.767 C 693.183 868.139, 691.578 868.502, 682 868.895 C 669.709 869.399, 671.823 870.747, 685.145 870.900 C 703.674 871.114, 718.846 862.092, 727.019 846 C 737.057 826.237, 730.975 799.849, 713.596 787.764 C 711.107 786.033, 711.413 786.602, 715.157 790.664 M 674.035 801.331 C 672.033 802.006, 669.605 803.935, 668.285 805.898 C 660.697 817.183, 675.211 829.900, 685.434 820.924 C 695.264 812.293, 686.449 797.141, 674.035 801.331 M 545.919 837.833 C 528.136 842.475, 514.820 857.386, 511.953 875.865 C 507.688 903.354, 529.638 928.933, 557.540 928.988 C 575.903 929.024, 591.820 918.962, 599.785 902.280 C 603.433 894.640, 603.500 894.284, 603.500 882.500 C 603.500 871.131, 603.336 870.158, 600.389 864 C 596.514 855.902, 592.330 850.664, 585.848 845.794 C 573.758 836.709, 560.415 834.049, 545.919 837.833" stroke="none" fill="#583362" fill-rule="evenodd"/><path d="M 668.105 777.519 C 647.819 783.212, 633.971 801.467, 634.012 822.460 C 634.047 840.244, 644.425 856.171, 661.453 864.575 C 669.317 868.456, 669.536 868.500, 680.953 868.500 C 692.214 868.500, 692.693 868.408, 700.280 864.785 C 710.641 859.838, 717.854 852.620, 722.759 842.292 C 726.054 835.354, 726.490 833.494, 726.835 824.899 C 727.691 803.584, 718.018 787.788, 699.330 779.983 C 689.811 776.008, 677.072 775.002, 668.105 777.519 M 674.035 801.331 C 672.033 802.006, 669.605 803.935, 668.285 805.898 C 660.697 817.183, 675.211 829.900, 685.434 820.924 C 695.264 812.293, 686.449 797.141, 674.035 801.331" stroke="none" fill="#391f3b" fill-rule="evenodd"/><path d="M 714.442 34 C 714.442 50.225, 714.580 56.862, 714.748 48.750 C 714.916 40.637, 714.916 27.362, 714.748 19.250 C 714.580 11.137, 714.442 17.775, 714.442 34 M 200.750 71.750 C 304.288 71.890, 473.713 71.890, 577.250 71.750 C 680.788 71.610, 596.075 71.495, 389 71.495 C 181.925 71.495, 97.213 71.610, 200.750 71.750 M 723.489 300.500 C 723.489 398.400, 723.606 438.302, 723.750 389.171 C 723.893 340.040, 723.893 259.940, 723.750 211.171 C 723.606 162.402, 723.489 202.600, 723.489 300.500 M 511.336 135 C 511.336 139.125, 511.513 140.813, 511.728 138.750 C 511.944 136.688, 511.944 133.313, 511.728 131.250 C 511.513 129.188, 511.336 130.875, 511.336 135 M 580.300 133 C 580.300 136.025, 580.487 137.262, 580.716 135.750 C 580.945 134.238, 580.945 131.762, 580.716 130.250 C 580.487 128.738, 580.300 129.975, 580.300 133 M 293.300 135 C 293.300 138.025, 293.487 139.262, 293.716 137.750 C 293.945 136.238, 293.945 133.762, 293.716 132.250 C 293.487 130.738, 293.300 131.975, 293.300 135 M 324.320 136 C 324.320 139.575, 324.502 141.037, 324.723 139.250 C 324.945 137.463, 324.945 134.537, 324.723 132.750 C 324.502 130.963, 324.320 132.425, 324.320 136 M 368.320 136 C 368.320 139.575, 368.502 141.037, 368.723 139.250 C 368.945 137.463, 368.945 134.537, 368.723 132.750 C 368.502 130.963, 368.320 132.425, 368.320 136 M 598.300 135 C 598.300 138.025, 598.487 139.262, 598.716 137.750 C 598.945 136.238, 598.945 133.762, 598.716 132.250 C 598.487 130.738, 598.300 131.975, 598.300 135 M 72.491 353.500 C 72.491 476.150, 72.608 526.474, 72.750 465.330 C 72.892 404.187, 72.892 303.837, 72.750 242.330 C 72.608 180.824, 72.491 230.850, 72.491 353.500 M 13.248 869.568 C 12.968 1285.505, 12.098 1244.228, 21.341 1253.472 C 30.749 1262.879, 4.757 1262, 273.428 1262.003 C 416.254 1262.005, 517.656 1261.615, 528.500 1261.022 C 538.400 1260.480, 556.400 1259.557, 568.500 1258.970 C 602.618 1257.315, 619.679 1254.638, 645.500 1246.888 C 696.906 1231.458, 733.604 1209.090, 752.031 1181.954 C 754.242 1178.699, 758.065 1172.042, 760.525 1167.163 L 765 1158.290 765 1091.645 L 765 1025 727.389 1025 C 691.466 1025, 689.869 1025.079, 691.800 1026.750 C 694.235 1028.859, 749.694 1122.857, 750.112 1125.586 C 751.038 1131.620, 745.801 1136.774, 740.031 1135.507 C 736.306 1134.689, 735.886 1134.131, 724.978 1115.500 C 719.826 1106.700, 707.148 1085.133, 696.805 1067.574 C 684.184 1046.146, 678 1034.705, 678 1032.779 C 678 1031.065, 678.989 1028.920, 680.455 1027.455 L 682.909 1025 575.474 1025 L 468.038 1025 468.640 1029.391 C 469.706 1037.165, 468.019 1038.729, 446.534 1049.884 C 393.833 1077.248, 393.871 1077.230, 389.032 1076.693 C 382.849 1076.006, 379 1071.736, 379 1065.561 C 379 1058.200, 381.102 1056.641, 413.037 1040.310 L 441.997 1025.500 389.870 1025.241 L 337.744 1024.982 334.337 1021.991 C 332.463 1020.346, 329.934 1019.036, 328.715 1019.079 C 327.330 1019.128, 327.062 1019.343, 328 1019.652 C 334.240 1021.708, 337 1025.350, 337 1031.527 C 337 1034.155, 336.243 1035.906, 334.250 1037.884 C 330.458 1041.649, 262.931 1076.001, 259.332 1075.996 C 255.355 1075.991, 250.573 1072.798, 249.056 1069.135 C 247.402 1065.142, 248.382 1059.929, 251.303 1057.185 C 253.628 1055.001, 315.678 1022.690, 322 1020.371 C 323.925 1019.665, 324.700 1019.068, 323.721 1019.044 C 322.743 1019.020, 319.269 1020.350, 316 1022 L 310.057 1025 162.030 1025 L 14.004 1025 13.750 763.250 C 13.526 531.966, 13.467 544.340, 13.248 869.568 M 695.462 574.250 L 690.500 579.500 695.750 574.538 C 700.628 569.926, 701.459 569, 700.712 569 C 700.554 569, 698.192 571.362, 695.462 574.250 M 231.750 600.750 C 306.687 600.891, 429.312 600.891, 504.250 600.750 C 579.187 600.609, 517.875 600.493, 368 600.493 C 218.125 600.493, 156.812 600.609, 231.750 600.750 M 95.392 642 C 95.392 649.425, 95.549 652.462, 95.742 648.750 C 95.934 645.038, 95.934 638.962, 95.742 635.250 C 95.549 631.538, 95.392 634.575, 95.392 642 M 209.286 633.500 C 209.294 636.250, 209.488 637.256, 209.718 635.736 C 209.947 634.216, 209.941 631.966, 209.704 630.736 C 209.467 629.506, 209.279 630.750, 209.286 633.500 M 185.328 648.500 C 185.333 652.350, 185.513 653.802, 185.730 651.728 C 185.946 649.653, 185.943 646.503, 185.722 644.728 C 185.501 642.952, 185.324 644.650, 185.328 648.500 M 153.768 643.725 C 155.565 643.947, 158.265 643.943, 159.768 643.715 C 161.271 643.486, 159.800 643.304, 156.500 643.310 C 153.200 643.315, 151.971 643.502, 153.768 643.725 M 175.310 649.500 C 175.315 652.800, 175.502 654.029, 175.725 652.232 C 175.947 650.435, 175.943 647.735, 175.715 646.232 C 175.486 644.729, 175.304 646.200, 175.310 649.500 M 491.476 644.719 C 494.763 644.936, 497.835 645.650, 498.302 646.307 C 498.898 647.142, 499.031 647.051, 498.747 646 C 498.443 644.877, 496.728 644.478, 491.921 644.412 L 485.500 644.324 491.476 644.719 M 493.189 653.167 C 493.069 657.410, 492.546 660.017, 491.750 660.338 C 490.771 660.733, 490.778 660.859, 491.781 660.921 C 493.673 661.038, 494.150 658.961, 493.743 652.388 L 493.378 646.500 493.189 653.167 M 502.070 654.167 C 502.032 657.283, 501.539 660.062, 500.975 660.342 C 500.411 660.621, 500.524 660.735, 501.225 660.594 C 502.743 660.288, 503.915 653.012, 502.873 650.362 C 502.422 649.216, 502.114 650.678, 502.070 654.167 M 91.750 828.748 C 99.587 828.917, 112.412 828.917, 120.250 828.748 C 128.087 828.579, 121.675 828.441, 106 828.441 C 90.325 828.441, 83.912 828.579, 91.750 828.748 M 223.191 828.747 C 230.171 828.918, 241.871 828.919, 249.191 828.748 C 256.511 828.577, 250.800 828.436, 236.500 828.436 C 222.200 828.435, 216.211 828.575, 223.191 828.747 M 96.250 902.747 C 103.263 902.919, 114.738 902.919, 121.750 902.747 C 128.763 902.575, 123.025 902.435, 109 902.435 C 94.975 902.435, 89.238 902.575, 96.250 902.747 M 224.750 902.748 C 232.587 902.917, 245.412 902.917, 253.250 902.748 C 261.087 902.579, 254.675 902.441, 239 902.441 C 223.325 902.441, 216.912 902.579, 224.750 902.748 M 518.027 908.838 C 519.515 911.895, 525.791 918.818, 528.287 920.153 C 529.364 920.730, 528.250 919.244, 525.811 916.851 C 523.372 914.458, 520.366 911.150, 519.133 909.500 C 517.584 907.429, 517.242 907.224, 518.027 908.838 M 645.500 1047.208 C 642.476 1048.942, 641.067 1051.194, 641.032 1054.348 C 640.995 1057.671, 695.470 1151.071, 699.591 1154.750 C 702.948 1157.747, 707.428 1157.663, 710.545 1154.545 C 715.386 1149.705, 715.116 1149.108, 685.024 1098 C 669.641 1071.875, 655.893 1049.487, 654.472 1048.250 C 651.644 1045.787, 648.595 1045.433, 645.500 1047.208 M 349 1058.649 C 344.875 1060.616, 342.038 1062.429, 342.695 1062.677 C 343.352 1062.926, 344.784 1062.651, 345.879 1062.065 C 348.700 1060.555, 348.812 1060.615, 350.436 1064.500 C 351.240 1066.425, 352.344 1068, 352.890 1068 C 354.847 1068, 355.053 1066.004, 353.423 1062.852 C 351.633 1059.391, 351.502 1059.656, 356.663 1056.309 C 360.327 1053.933, 356.330 1055.153, 349 1058.649 M 474.500 1058.073 C 471.200 1059.679, 468.050 1061.158, 467.500 1061.360 C 466.950 1061.561, 466.796 1062.046, 467.157 1062.437 C 467.518 1062.828, 469.205 1062.428, 470.905 1061.549 L 473.996 1059.951 475.607 1063.975 C 476.492 1066.189, 477.632 1068, 478.140 1068 C 479.920 1068, 480.130 1065.152, 478.572 1062.140 C 476.662 1058.446, 476.634 1058, 478.309 1058 C 479.029 1058, 480.491 1057.339, 481.559 1056.532 C 484.852 1054.041, 481.103 1054.860, 474.500 1058.073 M 455.823 1067.132 L 449.145 1070.245 451.279 1074.637 C 453.457 1079.119, 455.687 1079.975, 455.266 1076.166 C 454.949 1073.290, 458.351 1071.650, 463.267 1072.309 C 465.456 1072.603, 467.863 1072.606, 468.617 1072.317 C 470.887 1071.446, 469.097 1070, 465.750 1070 C 462.869 1070, 462.767 1069.891, 464.471 1068.645 C 466.470 1067.183, 465.996 1063.993, 463.781 1064.009 C 463.077 1064.014, 459.495 1065.419, 455.823 1067.132 M 333 1066.121 C 329.500 1067.512, 325 1072.030, 325 1074.152 C 325 1076.624, 328.643 1078.321, 332.356 1077.579 C 336.419 1076.766, 343 1072.381, 343 1070.486 C 343 1068.260, 341.431 1068.693, 339.650 1071.411 C 337.479 1074.724, 331.318 1076.747, 329.360 1074.789 C 328.551 1073.980, 328.213 1072.608, 328.584 1071.641 C 329.413 1069.481, 334.122 1067, 337.391 1067 C 338.761 1067, 340.160 1066.550, 340.500 1066 C 341.291 1064.721, 336.320 1064.801, 333 1066.121 M 457.250 1067.973 C 453.347 1069.745, 451.549 1072, 454.040 1072 C 455.859 1072, 463 1067.999, 463 1066.980 C 463 1065.612, 462.114 1065.765, 457.250 1067.973 M 608.357 1067.970 C 605.547 1069.132, 603 1072.850, 603 1075.791 C 603 1078.203, 657.495 1171.712, 661.254 1175.750 C 665.521 1180.334, 673.454 1177.844, 675.437 1171.300 C 675.837 1169.979, 675.423 1167.781, 674.401 1165.800 C 669.746 1156.772, 619.464 1072.206, 617.625 1070.311 C 615.093 1067.703, 611.312 1066.748, 608.357 1067.970 M 312.270 1076.161 L 306.040 1079.158 308.143 1083.329 C 309.300 1085.623, 310.346 1087.618, 310.468 1087.761 C 310.950 1088.329, 325 1081.648, 325 1080.851 C 325 1079.595, 324.416 1079.755, 319 1082.500 C 313.464 1085.305, 311.989 1085.570, 312.024 1083.750 C 312.037 1083.063, 314.399 1081.438, 317.274 1080.140 C 320.148 1078.842, 321.971 1077.578, 321.325 1077.331 C 320.678 1077.085, 318.334 1077.809, 316.115 1078.942 C 311.606 1081.242, 310 1081.505, 310 1079.945 C 310 1079.365, 312.475 1077.795, 315.500 1076.458 C 318.525 1075.120, 321 1073.795, 321 1073.513 C 321 1072.442, 318.290 1073.264, 312.270 1076.161 M 437.267 1076.250 C 436.058 1077.795, 433.732 1087.065, 434.388 1087.722 C 435.195 1088.529, 437 1086.967, 437 1085.461 C 437 1083.274, 444.630 1079.732, 446.818 1080.903 C 448.494 1081.799, 452.050 1080.716, 450.971 1079.638 C 450.314 1078.981, 440.112 1075, 439.085 1075 C 438.623 1075, 437.805 1075.563, 437.267 1076.250 M 438.650 1079.230 C 437.918 1082.028, 438.027 1082.091, 440.919 1080.543 C 443.308 1079.265, 443.312 1079.237, 441.278 1078.149 C 439.529 1077.213, 439.135 1077.375, 438.650 1079.230 M 420.972 1083.626 C 416.862 1085.620, 414.038 1087.449, 414.695 1087.691 C 415.352 1087.932, 416.784 1087.651, 417.879 1087.065 C 420.700 1085.555, 420.812 1085.615, 422.436 1089.500 C 423.240 1091.425, 424.344 1093, 424.890 1093 C 426.847 1093, 427.053 1091.004, 425.423 1087.852 C 423.633 1084.391, 423.502 1084.656, 428.663 1081.309 C 432.474 1078.838, 428.163 1080.136, 420.972 1083.626 M 292.269 1085.712 C 291.370 1086.035, 291.605 1087.279, 293.142 1090.327 C 294.299 1092.622, 295.421 1094.693, 295.635 1094.928 C 296.330 1095.695, 307.931 1089.697, 307.403 1088.844 C 307.122 1088.388, 305.134 1088.912, 302.985 1090.007 C 297.884 1092.610, 297.470 1092.549, 295.991 1088.979 C 294.579 1085.569, 294.023 1085.082, 292.269 1085.712 M 280.500 1091.168 C 277.200 1092.857, 274.303 1094.420, 274.061 1094.642 C 273.820 1094.863, 274.605 1097.066, 275.806 1099.537 L 277.989 1104.031 285.097 1100.451 C 293.340 1096.300, 293.772 1094.584, 285.637 1098.309 C 281.516 1100.196, 280.023 1100.504, 279.655 1099.544 C 279.354 1098.759, 281.064 1097.375, 284.082 1095.961 C 290.844 1092.794, 290.320 1091.441, 283.500 1094.458 C 276.352 1097.619, 275.887 1095.332, 283 1092 C 285.750 1090.712, 288 1089.285, 288 1088.829 C 288 1087.540, 286.944 1087.869, 280.500 1091.168 M 567.355 1090.554 C 562.630 1095.279, 563.235 1096.602, 593.941 1148.701 C 623.936 1199.595, 624.333 1200.137, 630.453 1198.601 C 634.003 1197.710, 637 1194.107, 637 1190.729 C 637 1187.367, 582.511 1093.946, 578.395 1090.250 C 575.011 1087.213, 570.574 1087.335, 567.355 1090.554 M 403 1092.130 C 399.557 1094.217, 398.046 1095.770, 398.015 1097.250 C 397.993 1098.362, 403.246 1098.159, 406.830 1096.910 C 408.550 1096.310, 410.520 1096.007, 411.208 1096.236 C 413.093 1096.864, 407.461 1100.211, 404.247 1100.373 C 402.736 1100.448, 401.412 1100.958, 401.304 1101.505 C 401.004 1103.029, 405.769 1102.316, 409.775 1100.237 C 417.805 1096.070, 416.516 1091.671, 408.085 1094.472 C 405.284 1095.402, 402.431 1095.974, 401.746 1095.743 C 399.956 1095.139, 406.416 1092, 409.450 1092 C 410.853 1092, 412 1091.550, 412 1091 C 412 1089.254, 406.631 1089.928, 403 1092.130 M 262.235 1099.980 C 254.163 1103.644, 255.454 1107.945, 263.875 1105.444 C 270.245 1103.553, 272.447 1104.006, 268.727 1106.443 C 266.417 1107.957, 264.237 1108.499, 258.691 1108.936 C 256.991 1109.070, 259.215 1111, 261.070 1111 C 264.075 1111, 271.942 1106.976, 273.075 1104.860 C 274.542 1102.118, 271.837 1101.407, 265.813 1102.951 C 263.101 1103.646, 260.642 1103.975, 260.348 1103.681 C 259.660 1102.993, 265.660 1099.874, 267.274 1100.080 C 269.644 1100.383, 271 1099.990, 271 1099 C 271 1097.413, 266.874 1097.874, 262.235 1099.980 M 530.206 1108.010 C 527.195 1109.268, 524.716 1115.129, 525.895 1118.202 C 527.677 1122.845, 582.186 1214.557, 584.170 1216.250 C 586.526 1218.259, 591.757 1218.506, 594.087 1216.718 C 596.158 1215.128, 598 1211.616, 598 1209.257 C 598 1207.470, 542.224 1111.831, 539.689 1109.272 C 537.978 1107.545, 532.927 1106.873, 530.206 1108.010 M 490.455 1132.455 C 485.613 1137.296, 485.896 1137.929, 515.583 1188.507 C 530.753 1214.353, 544.485 1236.737, 546.098 1238.250 C 550.161 1242.059, 555.261 1241.589, 558.718 1237.087 C 561.788 1233.088, 560.385 1230.198, 532.031 1182.112 C 516.663 1156.049, 503.091 1133.661, 501.871 1132.362 C 498.846 1129.143, 493.725 1129.184, 490.455 1132.455" stroke="none" fill="#a0a39d" fill-rule="evenodd"/><path d="M 73.234 34.250 L 73 63 43 63 L 13 63 13.168 67.250 L 13.336 71.500 13.728 67.750 L 14.121 64 43.592 64 C 66.414 64, 73.172 63.715, 73.548 62.737 C 73.814 62.042, 73.905 48.879, 73.750 33.487 L 73.467 5.500 73.234 34.250 M 765.221 47.230 L 765 62.960 743.750 63.251 L 722.500 63.542 743.781 63.771 C 760.436 63.950, 765.171 63.719, 765.559 62.706 C 765.832 61.994, 765.918 54.682, 765.749 46.456 L 765.442 31.500 765.221 47.230 M 239.750 63.750 C 326.788 63.891, 469.213 63.891, 556.250 63.750 C 643.288 63.609, 572.075 63.494, 398 63.494 C 223.925 63.494, 152.713 63.609, 239.750 63.750 M 765.489 248.500 C 765.489 345.850, 765.606 385.527, 765.750 336.671 C 765.893 287.815, 765.893 208.165, 765.750 159.671 C 765.606 111.177, 765.489 151.150, 765.489 248.500 M 95.147 106.071 C 86.624 107.755, 80.217 112.915, 75.368 122 C 73.562 125.384, 73.491 132.984, 73.239 350.457 C 72.947 602.471, 72.352 582.087, 80.255 590.661 C 82.540 593.140, 86.230 596.143, 88.455 597.334 L 92.500 599.500 366.316 599.757 C 630.841 600.006, 640.443 599.951, 649.326 598.136 C 670.548 593.801, 688.775 582.764, 702.145 566.155 C 708.572 558.170, 716.911 542.038, 719.540 532.500 C 722.277 522.571, 722.844 482.782, 722.902 296.500 C 722.954 129.774, 722.879 122.333, 721.121 118.500 C 718.862 113.576, 714.628 109.239, 710 107.110 C 706.809 105.642, 679.686 105.487, 403 105.355 C 236.075 105.276, 97.541 105.598, 95.147 106.071 M 106 127.500 L 106 130.011 189.750 129.756 C 272.748 129.502, 273.500 129.482, 273.500 127.500 C 273.500 125.518, 272.748 125.498, 189.750 125.244 L 106 124.989 106 127.500 M 621 127.500 L 621 130.026 656.250 129.763 C 690.746 129.506, 691.500 129.457, 691.500 127.500 C 691.500 125.543, 690.746 125.494, 656.250 125.237 L 621 124.974 621 127.500 M 291 135 L 291 142 295.443 142 C 300.416 142, 303 139.606, 303 135 C 303 130.394, 300.416 128, 295.443 128 L 291 128 291 135 M 305.655 129.829 C 303.970 131.690, 303.432 137.604, 304.765 139.600 C 305.759 141.088, 309.509 143, 311.434 143 C 316.326 143, 319.074 133.187, 315.171 129.655 C 312.744 127.458, 307.717 127.550, 305.655 129.829 M 318 129.500 C 318 130.333, 318.889 131, 320 131 C 321.758 131, 322 131.667, 322 136.500 C 322 140.722, 322.348 142, 323.500 142 C 324.652 142, 325 140.722, 325 136.500 C 325 131.667, 325.242 131, 327 131 C 328.111 131, 329 130.333, 329 129.500 C 329 128.348, 327.722 128, 323.500 128 C 319.278 128, 318 128.348, 318 129.500 M 335 135 C 335 140.556, 335.310 142, 336.500 142 C 337.505 142, 338.034 140.927, 338.102 138.750 L 338.204 135.500 339.259 138.793 C 340.605 142.995, 342.907 142.652, 344.585 138 L 345.848 134.500 345.924 138.250 C 346.065 145.188, 348 142.158, 348 135 C 348 129.614, 347.672 128, 346.578 128 C 345.795 128, 344.616 129.688, 343.957 131.750 C 342.151 137.400, 341.414 137.550, 340.015 132.555 C 339.084 129.227, 338.236 128, 336.870 128 C 335.221 128, 335 128.829, 335 135 M 353.310 129.750 C 352.966 130.713, 351.855 133.654, 350.842 136.287 C 348.630 142.037, 348.632 142, 350.433 142 C 351.221 142, 352.151 141.100, 352.500 140 C 352.899 138.743, 354.013 138, 355.500 138 C 356.987 138, 358.101 138.743, 358.500 140 C 358.849 141.100, 359.779 142, 360.567 142 C 362.421 142, 362.440 142.121, 359.394 134.511 C 356.804 128.042, 354.553 126.280, 353.310 129.750 M 362 129.500 C 362 130.333, 362.889 131, 364 131 C 365.758 131, 366 131.667, 366 136.500 C 366 140.722, 366.348 142, 367.500 142 C 368.652 142, 369 140.722, 369 136.500 C 369 131.667, 369.242 131, 371 131 C 372.111 131, 373 130.333, 373 129.500 C 373 128.348, 371.722 128, 367.500 128 C 363.278 128, 362 128.348, 362 129.500 M 374 134.948 C 374 140.550, 374.308 142, 375.500 142 C 376.500 142, 377 141, 377 139 C 377 137.350, 377.437 136, 377.970 136 C 378.504 136, 379.938 137.350, 381.158 139 C 382.378 140.650, 383.966 142, 384.688 142 C 386.384 142, 386.350 140.861, 384.583 138.444 C 383.625 137.134, 383.486 136.119, 384.155 135.313 C 384.699 134.658, 384.999 132.856, 384.822 131.310 C 384.520 128.673, 384.176 128.481, 379.250 128.198 L 374 127.895 374 134.948 M 388 135 C 388 139, 388.429 142, 389 142 C 389.571 142, 390 139, 390 135 C 390 131, 389.571 128, 389 128 C 388.429 128, 388 131, 388 135 M 392 128.596 C 392 128.923, 392.879 130.425, 393.953 131.933 L 395.905 134.675 393.416 138.338 C 391.138 141.691, 391.085 142, 392.795 142 C 393.822 142, 395.274 140.857, 396.021 139.460 L 397.381 136.920 398.922 139.460 C 400.811 142.573, 404.677 143.134, 403.030 140.056 C 402.457 138.986, 401.542 137.835, 400.995 137.497 C 399.423 136.525, 399.826 134.054, 402.068 130.904 C 404.527 127.451, 402.779 126.920, 399.400 130.094 L 397.171 132.188 396.050 130.094 C 395.048 128.221, 392 127.093, 392 128.596 M 409.362 131.062 C 411.735 142.923, 414.080 145.280, 416.015 137.750 C 417.467 132.101, 417.826 131.210, 417.927 133 C 418.138 136.757, 420.225 142, 421.508 142 C 422.851 142, 424.125 138.626, 425.638 131.062 C 426.156 128.472, 425.996 127.835, 424.918 128.194 C 424.156 128.448, 423.131 130.646, 422.640 133.078 L 421.747 137.500 420.343 132.750 C 419.502 129.902, 418.357 128, 417.484 128 C 416.584 128, 415.569 129.812, 414.822 132.750 L 413.616 137.500 412.528 133.073 C 411.204 127.688, 408.321 125.855, 409.362 131.062 M 427 135 C 427 140.556, 427.310 142, 428.500 142 C 429.690 142, 430 140.556, 430 135 C 430 129.444, 429.690 128, 428.500 128 C 427.310 128, 427 129.444, 427 135 M 431 129.500 C 431 130.433, 431.944 131, 433.500 131 C 435.864 131, 436 131.300, 436 136.500 C 436 139.525, 436.450 142, 437 142 C 437.550 142, 438 139.556, 438 136.570 C 438 131.761, 438.249 131.103, 440.172 130.820 C 441.366 130.644, 442.529 129.938, 442.755 129.250 C 443.054 128.342, 441.503 128, 437.083 128 C 432.343 128, 431 128.331, 431 129.500 M 444 135 C 444 139, 444.429 142, 445 142 C 445.550 142, 446 140.650, 446 139 C 446 136.333, 446.333 136, 449 136 C 451.667 136, 452 136.333, 452 139 C 452 141, 452.500 142, 453.500 142 C 454.690 142, 455 140.556, 455 135 C 455 129.444, 454.690 128, 453.500 128 C 452.500 128, 452 129, 452 131 C 452 133.667, 451.667 134, 449 134 C 446.333 134, 446 133.667, 446 131 C 446 129.350, 445.550 128, 445 128 C 444.429 128, 444 131, 444 135 M 463.245 129.155 C 460.420 131.980, 462.224 135.265, 467.299 136.539 C 470.487 137.339, 470.406 139.344, 467.167 139.820 C 465.885 140.009, 464.744 139.495, 464.389 138.570 C 463.729 136.851, 461 136.392, 461 138 C 461 139.694, 464.894 143, 466.889 143 C 467.928 143, 469.825 142.153, 471.103 141.117 C 473.155 139.456, 473.288 138.928, 472.235 136.617 C 471.580 135.178, 470.246 133.993, 469.271 133.985 C 466.230 133.958, 464.323 132.277, 465.735 130.865 C 466.692 129.908, 467.387 130.040, 468.983 131.484 C 471.320 133.599, 472.943 132.725, 471.364 130.202 C 470.057 128.115, 464.944 127.456, 463.245 129.155 M 473 129.500 C 473 130.433, 473.944 131, 475.500 131 C 477.864 131, 478 131.300, 478 136.500 C 478 139.525, 478.450 142, 479 142 C 479.550 142, 480 139.556, 480 136.570 C 480 131.761, 480.249 131.103, 482.172 130.820 C 483.366 130.644, 484.529 129.938, 484.755 129.250 C 485.054 128.342, 483.503 128, 479.083 128 C 474.343 128, 473 128.331, 473 129.500 M 486 135 L 486 142 491 142 C 493.750 142, 496 141.550, 496 141 C 496 140.450, 494.200 140, 492 140 C 488.667 140, 488 139.667, 488 138 C 488 136.333, 488.667 136, 492 136 C 494.200 136, 496 135.550, 496 135 C 496 134.450, 494.200 134, 492 134 C 489.111 134, 488 133.583, 488 132.500 C 488 131.417, 489.111 131, 492 131 C 494.889 131, 496 130.583, 496 129.500 C 496 128.367, 494.778 128, 491 128 L 486 128 486 135 M 498 135 C 498 140.418, 498.325 142, 499.437 142 C 500.327 142, 500.993 140.763, 501.187 138.750 L 501.500 135.500 504.473 138.750 C 506.108 140.537, 508.020 142, 508.723 142 C 510.378 142, 510.333 141.438, 508.446 138.557 C 507.412 136.980, 507.245 135.967, 507.946 135.534 C 509.603 134.509, 509.206 129.293, 507.418 128.607 C 506.548 128.273, 504.073 128, 501.918 128 L 498 128 498 135 M 511 135 L 511 142 516.500 142 C 519.525 142, 522 141.550, 522 141 C 522 140.450, 520.200 140, 518 140 C 514.667 140, 514 139.667, 514 138 C 514 136.381, 514.667 136, 517.500 136 C 519.425 136, 521 135.550, 521 135 C 521 134.450, 519.425 134, 517.500 134 C 512.563 134, 512.713 131.229, 517.673 130.810 C 523.896 130.284, 523.010 128, 516.583 128 L 511 128 511 135 M 524.557 130.223 C 522.086 133.750, 522.566 138.513, 525.635 140.927 C 528.948 143.534, 531.445 143.555, 534 141 C 536.614 138.386, 536.712 131.954, 534.171 129.655 C 531.490 127.228, 526.446 127.526, 524.557 130.223 M 544.250 128.639 C 542.631 129.323, 542.634 133.452, 544.256 134.797 C 544.946 135.370, 546.766 136.154, 548.299 136.539 C 551.487 137.339, 551.406 139.344, 548.167 139.820 C 546.885 140.009, 545.744 139.495, 545.389 138.570 C 544.729 136.851, 542 136.392, 542 138 C 542 139.694, 545.894 143, 547.889 143 C 548.928 143, 550.785 142.185, 552.016 141.188 C 555.091 138.698, 553.941 135.466, 549.452 133.984 C 545.944 132.827, 545.144 131.647, 547.063 130.461 C 547.648 130.100, 549 130.595, 550.069 131.563 C 552.338 133.616, 553.915 132.680, 552.364 130.202 C 551.309 128.517, 546.661 127.621, 544.250 128.639 M 556.655 129.829 C 553.076 133.784, 555.812 143, 560.566 143 C 562.491 143, 566.241 141.088, 567.235 139.600 C 568.502 137.702, 568.066 132.540, 566.443 130.223 C 564.481 127.421, 559.033 127.201, 556.655 129.829 M 569.285 134.208 C 569.868 140.631, 571.459 143, 575.191 143 C 578.798 143, 581 139.398, 581 133.500 C 581 129.362, 580.641 128, 579.550 128 C 578.486 128, 578.020 129.531, 577.800 133.750 C 577.519 139.137, 577.342 139.500, 575 139.500 C 572.658 139.500, 572.481 139.137, 572.200 133.750 C 571.967 129.288, 571.544 128, 570.311 128 C 568.969 128, 568.810 128.966, 569.285 134.208 M 583 135 C 583 139, 583.429 142, 584 142 C 584.550 142, 585.005 139.863, 585.012 137.250 L 585.024 132.500 588.130 137.250 C 592.610 144.099, 594 143.567, 594 135 C 594 129.444, 593.690 128, 592.500 128 C 591.404 128, 590.996 129.146, 590.984 132.250 L 590.968 136.500 588.234 132.257 C 584.223 126.032, 583 126.673, 583 135 M 596 135 L 596 142 600.443 142 C 605.416 142, 608 139.606, 608 135 C 608 130.394, 605.416 128, 600.443 128 L 596 128 596 135 M 308.054 131.435 C 307.399 132.224, 307.007 134.361, 307.182 136.185 C 307.448 138.963, 307.946 139.551, 310.250 139.816 C 312.459 140.071, 313.201 139.602, 314.026 137.431 C 315.850 132.633, 311.056 127.818, 308.054 131.435 M 377 132 C 377 133.429, 377.667 134, 379.333 134 C 382.343 134, 383.269 133.029, 381.869 131.342 C 380.134 129.251, 377 129.675, 377 132 M 501 131.930 C 501 133.487, 501.638 134, 503.573 134 C 506.856 134, 506.564 130.655, 503.240 130.180 C 501.539 129.938, 501 130.359, 501 131.930 M 527.200 131.200 C 526.540 131.860, 526 133.570, 526 135 C 526 140.090, 531.167 141.922, 533.163 137.541 C 534.061 135.572, 533.952 134.576, 532.619 132.541 C 530.802 129.768, 529.062 129.338, 527.200 131.200 M 558.381 132.541 C 557.048 134.576, 556.939 135.572, 557.837 137.541 C 559.833 141.922, 565 140.090, 565 135 C 565 129.880, 561.079 128.424, 558.381 132.541 M 294 135.434 C 294 139.234, 294.315 140, 295.878 140 C 298.534 140, 300.199 137.598, 299.822 134.310 C 299.567 132.086, 298.927 131.434, 296.750 131.184 C 294.105 130.879, 294 131.042, 294 135.434 M 599 135.434 C 599 139.234, 599.315 140, 600.878 140 C 603.534 140, 605.199 137.598, 604.822 134.310 C 604.567 132.086, 603.927 131.434, 601.750 131.184 C 599.105 130.879, 599 131.042, 599 135.434 M 105 142 C 105 143.984, 105.667 144, 189.500 144 C 273.333 144, 274 143.984, 274 142 C 274 140.016, 273.333 140, 189.500 140 C 105.667 140, 105 140.016, 105 142 M 620 142 C 620 143.963, 620.667 144, 656 144 C 691.333 144, 692 143.963, 692 142 C 692 140.037, 691.333 140, 656 140 C 620.667 140, 620 140.037, 620 142 M 203.753 163.950 C 201.693 164.354, 199.043 165.543, 197.865 166.592 C 192.767 171.135, 193 162.249, 193 352 C 193 544.101, 192.665 532.660, 198.452 538 L 201.161 540.500 397.164 540.757 C 617.046 541.046, 598.025 541.712, 601.956 533.591 C 603.991 529.387, 604 528.605, 603.998 351.934 C 603.997 184.985, 603.894 174.297, 602.248 171.071 C 601.287 169.185, 599.230 166.710, 597.677 165.571 L 594.854 163.500 401.177 163.357 C 294.655 163.279, 205.814 163.546, 203.753 163.950 M 115.339 284.935 C 108.693 288.987, 109.152 298.959, 116.151 302.578 C 127.515 308.455, 137.027 291.173, 126.010 284.665 C 122.324 282.488, 119.224 282.566, 115.339 284.935 M 97 331.500 L 97 338 100.965 338 C 105.367 338, 107.273 335.924, 106.013 332.500 C 105.608 331.400, 105.490 329.932, 105.750 329.237 C 106.557 327.085, 103.914 325, 100.378 325 L 97 325 97 331.500 M 109.050 331.083 C 106.745 337.404, 107.108 340.153, 109.731 336.250 C 111.414 333.747, 115 333.197, 115 335.441 C 115 337.043, 116.816 338.517, 117.701 337.633 C 118.647 336.686, 113.848 325, 112.512 325 C 111.828 325, 110.270 327.737, 109.050 331.083 M 118 326 C 118 326.550, 118.900 327, 120 327 C 121.758 327, 122 327.667, 122 332.500 C 122 336.722, 122.348 338, 123.500 338 C 124.652 338, 125 336.722, 125 332.500 C 125 328.278, 125.348 327, 126.500 327 C 127.325 327, 128 326.550, 128 326 C 128 325.450, 125.750 325, 123 325 C 120.250 325, 118 325.450, 118 326 M 129 326 C 129 326.550, 129.675 327, 130.500 327 C 131.652 327, 132 328.278, 132 332.500 C 132 336.722, 132.348 338, 133.500 338 C 134.652 338, 135 336.722, 135 332.500 C 135 327.667, 135.242 327, 137 327 C 138.758 327, 139 327.667, 139 332.500 L 139 338 143.500 338 C 145.975 338, 148 337.550, 148 337 C 148 336.450, 146.425 336, 144.500 336 C 139.913 336, 139.632 333.262, 144.173 332.813 C 148.757 332.361, 149.102 330, 144.583 330 C 142.065 330, 141 329.554, 141 328.500 C 141 327.452, 142.056 327, 144.500 327 C 146.425 327, 148 326.550, 148 326 C 148 325.404, 144.167 325, 138.500 325 C 132.833 325, 129 325.404, 129 326 M 149 331.443 C 149 335.148, 149.435 338, 150 338 C 150.550 338, 151 336.875, 151 335.500 C 151 333.962, 151.568 333, 152.477 333 C 153.289 333, 154.691 334.125, 155.592 335.500 C 156.493 336.875, 157.853 338, 158.615 338 C 160.354 338, 160.329 337.018, 158.528 334.641 C 157.418 333.175, 157.370 332.380, 158.303 330.887 C 160.168 327.899, 158.047 325.556, 153.148 325.193 L 149 324.885 149 331.443 M 159.004 325.750 C 159.006 326.163, 159.906 327.973, 161.004 329.774 C 162.102 331.575, 163 334.162, 163 335.524 C 163 336.886, 163.450 338, 164 338 C 164.550 338, 165 336.979, 165 335.732 C 165 334.485, 166.125 331.809, 167.500 329.785 C 170.405 325.509, 170.515 325, 168.532 325 C 167.725 325, 166.453 326.166, 165.706 327.591 L 164.349 330.182 162.651 327.591 C 161.048 325.144, 158.996 324.108, 159.004 325.750 M 99 328.427 C 99 329.354, 99.855 330, 101.083 330 C 103.520 330, 103.176 327.663, 100.667 327.177 C 99.680 326.985, 99 327.495, 99 328.427 M 151 328.430 C 151 329.451, 151.903 330, 153.583 330 C 156.716 330, 156.373 327.652, 153.172 327.180 C 151.729 326.968, 151 327.388, 151 328.430 M 99 333.933 C 99 336.154, 102.333 336.889, 103.541 334.933 C 104.335 333.648, 104.140 333.445, 101.250 332.557 C 99.419 331.994, 99 332.250, 99 333.933 M 302.250 618.716 C 303.762 618.945, 306.238 618.945, 307.750 618.716 C 309.262 618.487, 308.025 618.300, 305 618.300 C 301.975 618.300, 300.738 618.487, 302.250 618.716 M 328.750 618.723 C 330.538 618.945, 333.462 618.945, 335.250 618.723 C 337.038 618.502, 335.575 618.320, 332 618.320 C 328.425 618.320, 326.962 618.502, 328.750 618.723 M 349.750 618.723 C 351.538 618.945, 354.462 618.945, 356.250 618.723 C 358.038 618.502, 356.575 618.320, 353 618.320 C 349.425 618.320, 347.962 618.502, 349.750 618.723 M 374.750 618.740 C 378.188 618.936, 383.813 618.936, 387.250 618.740 C 390.688 618.545, 387.875 618.385, 381 618.385 C 374.125 618.385, 371.313 618.545, 374.750 618.740 M 410.651 618.750 C 410.395 619.163, 413.181 619.376, 416.842 619.224 C 428.442 618.743, 429.803 618.325, 420.309 618.160 C 415.254 618.072, 410.908 618.337, 410.651 618.750 M 466.655 618.750 C 466.400 619.163, 468.580 619.500, 471.500 619.500 C 474.420 619.500, 476.600 619.163, 476.345 618.750 C 476.091 618.337, 473.910 618, 471.500 618 C 469.090 618, 466.909 618.337, 466.655 618.750 M 487.653 618.750 C 487.397 619.163, 489.451 619.340, 492.218 619.145 C 496.070 618.873, 497.065 619.085, 496.469 620.050 C 495.964 620.867, 496.096 621.059, 496.845 620.595 C 499.327 619.062, 497.778 618, 493.059 618 C 490.341 618, 487.909 618.337, 487.653 618.750 M 383.500 626 L 375.500 626.633 383.191 626.817 C 387.450 626.918, 391.158 626.554, 391.500 626 C 391.840 625.450, 391.979 625.083, 391.809 625.183 C 391.639 625.284, 387.900 625.652, 383.500 626 M 301.764 629.750 C 301.570 630.163, 301.704 632.300, 302.063 634.500 L 302.716 638.500 302.858 633.750 C 302.990 629.331, 302.613 627.951, 301.764 629.750 M 270.728 634.722 C 272.503 634.943, 275.653 634.946, 277.728 634.730 C 279.802 634.513, 278.350 634.333, 274.500 634.328 C 270.650 634.324, 268.952 634.501, 270.728 634.722 M 171.365 645.500 C 171.368 651, 171.536 653.122, 171.738 650.216 C 171.941 647.311, 171.939 642.811, 171.734 640.216 C 171.528 637.622, 171.363 640, 171.365 645.500 M 101.355 645.500 C 101.352 650.450, 101.521 652.601, 101.731 650.280 C 101.940 647.959, 101.943 643.909, 101.736 641.280 C 101.530 638.651, 101.358 640.550, 101.355 645.500 M 105.355 645.500 C 105.352 650.450, 105.521 652.601, 105.731 650.280 C 105.940 647.959, 105.943 643.909, 105.736 641.280 C 105.530 638.651, 105.358 640.550, 105.355 645.500 M 129.336 648 C 129.336 652.125, 129.513 653.813, 129.728 651.750 C 129.944 649.688, 129.944 646.313, 129.728 644.250 C 129.513 642.188, 129.336 643.875, 129.336 648 M 153.750 768.748 C 162.688 768.914, 177.313 768.914, 186.250 768.748 C 195.188 768.582, 187.875 768.447, 170 768.447 C 152.125 768.447, 144.813 768.582, 153.750 768.748 M 134.441 800.500 C 134.442 816.450, 134.580 822.835, 134.748 814.689 C 134.916 806.543, 134.916 793.493, 134.747 785.689 C 134.579 777.885, 134.441 784.550, 134.441 800.500 M 210.439 802 C 210.439 817.125, 210.578 823.313, 210.748 815.750 C 210.917 808.188, 210.917 795.813, 210.748 788.250 C 210.578 780.688, 210.439 786.875, 210.439 802 M 270.448 866.500 C 270.447 884.650, 270.582 892.216, 270.748 883.314 C 270.913 874.411, 270.914 859.561, 270.749 850.314 C 270.583 841.066, 270.448 848.350, 270.448 866.500 M 604.300 883 C 604.300 886.025, 604.487 887.263, 604.716 885.750 C 604.945 884.237, 604.945 881.763, 604.716 880.250 C 604.487 878.737, 604.300 879.975, 604.300 883 M 134.439 929 C 134.439 944.125, 134.578 950.313, 134.748 942.750 C 134.917 935.188, 134.917 922.813, 134.748 915.250 C 134.578 907.688, 134.439 913.875, 134.439 929 M 210.441 930.500 C 210.442 946.450, 210.580 952.835, 210.748 944.689 C 210.916 936.543, 210.916 923.493, 210.747 915.689 C 210.579 907.885, 210.441 914.550, 210.441 930.500 M 157.330 1262.750 C 222.137 1262.892, 327.887 1262.892, 392.330 1262.750 C 456.774 1262.608, 403.750 1262.492, 274.500 1262.492 C 145.250 1262.492, 92.524 1262.608, 157.330 1262.750" stroke="none" fill="#888a85" fill-rule="evenodd"/><path d="M 201.418 164.965 C 200.274 165.430, 198.136 167.238, 196.668 168.982 L 194 172.153 194 351.626 C 194 548.862, 193.563 535.171, 199.967 538.483 C 202.560 539.824, 225.620 540, 398.500 540 C 613.533 540, 598.163 540.453, 601.491 534.017 C 602.844 531.401, 602.987 510.758, 602.758 351.053 L 602.500 171.038 599.231 167.769 L 595.962 164.500 399.731 164.309 C 291.804 164.205, 202.563 164.500, 201.418 164.965" stroke="none" fill="#73d216" fill-rule="evenodd"/><path d="M 766 594.148 L 766 1157.606 761.999 1165.879 C 755.755 1178.791, 749.553 1187.614, 740.159 1196.949 C 720.197 1216.783, 694.154 1231.656, 658.500 1243.583 C 630.612 1252.912, 610.289 1257.026, 582.500 1258.969 C 536.147 1262.209, 521.543 1262.391, 281 1262.721 C 58.843 1263.025, 37.062 1262.913, 32.500 1261.437 C 29.750 1260.547, 26.718 1259.120, 25.761 1258.265 C 24.113 1256.792, 24.105 1256.952, 25.600 1261.338 C 28.682 1270.383, 36.048 1277.859, 43.985 1279.996 C 49.697 1281.534, 531.851 1280.788, 561.500 1279.195 C 618.501 1276.133, 634.487 1273.534, 669.802 1261.586 C 694.431 1253.254, 709.787 1245.994, 727.004 1234.541 C 747.837 1220.683, 760.876 1206.613, 770.811 1187.272 L 776.007 1177.157 775.753 610.829 L 775.500 44.500 772.603 39.272 C 771.010 36.397, 768.872 33.289, 767.853 32.367 C 766.049 30.735, 766 45.649, 766 594.148 M 166.055 860.657 C 161.674 866.227, 168.623 873.389, 173.345 868.171 C 175.707 865.561, 175.434 861.418, 172.777 859.557 C 169.689 857.394, 168.465 857.594, 166.055 860.657" stroke="none" fill="#2c313c" fill-rule="evenodd"/><path d="M 301.170 540.750 C 354.339 540.893, 441.639 540.893, 495.170 540.750 C 548.702 540.607, 505.200 540.490, 398.500 540.490 C 291.800 540.490, 248.002 540.607, 301.170 540.750" stroke="none" fill="#9eb189" fill-rule="evenodd"/></svg>